<?xml version='1.0' encoding='utf-8'?>
<svg xmlns="http://www.w3.org/2000/svg" width="2129.92" height="2129.92" viewBox="0 0 2129.92 2129.92" fill="none">
  
  <rect x="0" y="0" width="2129.92" height="2129.92" fill="#FFFFFF" />
<g fill="#000000" fill-rule="evenodd" transform="translate(40.96 40.96)">
    <path d="M 1030.0 334.0 L 1030.0 571.0 L 1114.0 571.0 L 1131.0 567.0 L 1145.0 559.0 L 1157.0 546.0 L 1162.0 535.0 L 1166.0 517.0 L 1166.0 495.0 L 1162.0 477.0 L 1150.0 457.0 L 1129.0 443.0 L 1131.0 440.0 L 1141.0 436.0 L 1150.0 427.0 L 1156.0 412.0 L 1158.0 385.0 L 1152.0 359.0 L 1142.0 345.0 L 1127.0 338.0 L 1102.0 334.0 Z M 1074.0 464.0 L 1094.0 464.0 L 1105.0 467.0 L 1118.0 478.0 L 1121.0 484.0 L 1125.0 499.0 L 1123.0 517.0 L 1119.0 526.0 L 1112.0 533.0 L 1106.0 536.0 L 1075.0 537.0 L 1071.0 533.0 L 1071.0 467.0 Z M 1073.0 370.0 L 1099.0 369.0 L 1108.0 373.0 L 1113.0 379.0 L 1117.0 389.0 L 1117.0 405.0 L 1115.0 413.0 L 1107.0 425.0 L 1093.0 430.0 L 1076.0 430.0 L 1071.0 426.0 L 1071.0 373.0 Z M 874.0 334.0 L 826.0 571.0 L 864.0 571.0 L 872.0 526.0 L 877.0 520.0 L 925.0 521.0 L 929.0 529.0 L 937.0 571.0 L 976.0 571.0 L 927.0 334.0 Z M 899.0 383.0 L 901.0 383.0 L 904.0 387.0 L 905.0 402.0 L 919.0 482.0 L 915.0 486.0 L 885.0 486.0 L 881.0 482.0 L 892.0 422.0 L 896.0 389.0 Z M 691.0 334.0 L 642.0 571.0 L 680.0 571.0 L 688.0 526.0 L 694.0 520.0 L 741.0 521.0 L 745.0 527.0 L 745.0 534.0 L 753.0 571.0 L 792.0 571.0 L 743.0 334.0 Z M 716.0 383.0 L 720.0 387.0 L 723.0 415.0 L 735.0 482.0 L 731.0 486.0 L 701.0 486.0 L 697.0 482.0 L 712.0 401.0 L 713.0 386.0 Z M 450.0 334.0 L 450.0 571.0 L 487.0 571.0 L 486.0 418.0 L 489.0 413.0 L 494.0 419.0 L 547.0 571.0 L 589.0 571.0 L 589.0 334.0 L 553.0 334.0 L 554.0 481.0 L 552.0 483.0 L 546.0 476.0 L 497.0 334.0 Z M 293.0 334.0 L 244.0 571.0 L 282.0 571.0 L 290.0 526.0 L 295.0 520.0 L 344.0 521.0 L 347.0 526.0 L 355.0 571.0 L 394.0 571.0 L 346.0 334.0 Z M 318.0 383.0 L 322.0 385.0 L 337.0 475.0 L 337.0 483.0 L 333.0 486.0 L 304.0 486.0 L 299.0 482.0 L 315.0 387.0 Z M 80.0 334.0 L 80.0 369.0 L 117.0 369.0 L 122.0 373.0 L 122.0 571.0 L 163.0 571.0 L 163.0 373.0 L 168.0 369.0 L 203.0 369.0 L 203.0 334.0 Z" /><path d="M 1587.0 715.0 L 1587.0 951.0 L 1624.0 951.0 L 1623.0 797.0 L 1625.0 795.0 L 1630.0 800.0 L 1683.0 951.0 L 1724.0 951.0 L 1724.0 715.0 L 1688.0 715.0 L 1689.0 857.0 L 1686.0 861.0 L 1683.0 859.0 L 1633.0 715.0 Z M 1499.0 715.0 L 1499.0 951.0 L 1539.0 951.0 L 1539.0 715.0 Z M 1320.0 715.0 L 1320.0 951.0 L 1359.0 951.0 L 1359.0 859.0 L 1363.0 855.0 L 1381.0 854.0 L 1387.0 861.0 L 1415.0 951.0 L 1456.0 951.0 L 1421.0 848.0 L 1423.0 845.0 L 1428.0 843.0 L 1440.0 829.0 L 1444.0 819.0 L 1448.0 799.0 L 1448.0 770.0 L 1446.0 756.0 L 1439.0 737.0 L 1428.0 726.0 L 1409.0 718.0 L 1384.0 715.0 Z M 1362.0 750.0 L 1390.0 751.0 L 1396.0 754.0 L 1403.0 761.0 L 1407.0 769.0 L 1409.0 777.0 L 1409.0 797.0 L 1403.0 812.0 L 1396.0 819.0 L 1384.0 824.0 L 1364.0 824.0 L 1359.0 820.0 L 1359.0 753.0 Z M 1167.0 715.0 L 1167.0 951.0 L 1274.0 951.0 L 1274.0 916.0 L 1211.0 917.0 L 1207.0 913.0 L 1207.0 852.0 L 1211.0 849.0 L 1265.0 849.0 L 1265.0 812.0 L 1211.0 813.0 L 1207.0 809.0 L 1207.0 754.0 L 1212.0 750.0 L 1274.0 751.0 L 1274.0 715.0 Z M 980.0 715.0 L 1029.0 951.0 L 1081.0 951.0 L 1116.0 785.0 L 1129.0 715.0 L 1087.0 716.0 L 1059.0 891.0 L 1056.0 897.0 L 1053.0 895.0 L 1022.0 715.0 Z M 817.0 715.0 L 817.0 900.0 L 823.0 928.0 L 828.0 937.0 L 834.0 943.0 L 843.0 949.0 L 855.0 953.0 L 867.0 955.0 L 898.0 955.0 L 917.0 950.0 L 926.0 945.0 L 934.0 937.0 L 940.0 926.0 L 944.0 906.0 L 944.0 715.0 L 907.0 715.0 L 907.0 896.0 L 903.0 910.0 L 897.0 916.0 L 885.0 920.0 L 870.0 917.0 L 860.0 907.0 L 856.0 892.0 L 856.0 715.0 Z M 666.0 715.0 L 666.0 951.0 L 772.0 951.0 L 772.0 916.0 L 710.0 917.0 L 705.0 912.0 L 705.0 853.0 L 710.0 849.0 L 763.0 849.0 L 763.0 812.0 L 710.0 813.0 L 705.0 808.0 L 705.0 755.0 L 708.0 751.0 L 772.0 751.0 L 772.0 715.0 Z M 481.0 715.0 L 481.0 951.0 L 517.0 951.0 L 516.0 799.0 L 518.0 796.0 L 522.0 798.0 L 576.0 951.0 L 617.0 951.0 L 617.0 715.0 L 581.0 715.0 L 582.0 859.0 L 580.0 861.0 L 574.0 853.0 L 526.0 715.0 Z M 342.0 715.0 L 303.0 909.0 L 293.0 951.0 L 331.0 951.0 L 340.0 905.0 L 344.0 900.0 L 392.0 901.0 L 395.0 908.0 L 403.0 951.0 L 442.0 951.0 L 394.0 715.0 Z M 367.0 765.0 L 371.0 770.0 L 375.0 804.0 L 385.0 856.0 L 385.0 863.0 L 381.0 866.0 L 353.0 866.0 L 349.0 862.0 L 363.0 775.0 Z M 80.0 715.0 L 80.0 951.0 L 116.0 951.0 L 116.0 786.0 L 118.0 783.0 L 121.0 784.0 L 123.0 790.0 L 127.0 819.0 L 154.0 951.0 L 183.0 951.0 L 215.0 785.0 L 217.0 783.0 L 220.0 785.0 L 221.0 790.0 L 221.0 951.0 L 256.0 951.0 L 256.0 715.0 L 201.0 716.0 L 173.0 856.0 L 170.0 862.0 L 167.0 860.0 L 160.0 819.0 L 138.0 715.0 Z M 1826.0 712.0 L 1809.0 716.0 L 1797.0 723.0 L 1784.0 737.0 L 1777.0 751.0 L 1771.0 773.0 L 1768.0 799.0 L 1769.0 875.0 L 1773.0 899.0 L 1780.0 921.0 L 1788.0 936.0 L 1799.0 947.0 L 1807.0 951.0 L 1823.0 955.0 L 1852.0 955.0 L 1868.0 951.0 L 1880.0 945.0 L 1892.0 934.0 L 1899.0 923.0 L 1906.0 897.0 L 1907.0 824.0 L 1838.0 824.0 L 1838.0 857.0 L 1863.0 857.0 L 1868.0 861.0 L 1867.0 892.0 L 1862.0 907.0 L 1852.0 917.0 L 1843.0 920.0 L 1835.0 920.0 L 1828.0 917.0 L 1819.0 909.0 L 1815.0 902.0 L 1812.0 893.0 L 1810.0 876.0 L 1810.0 788.0 L 1814.0 768.0 L 1818.0 759.0 L 1823.0 753.0 L 1835.0 747.0 L 1845.0 747.0 L 1852.0 750.0 L 1860.0 758.0 L 1865.0 769.0 L 1867.0 788.0 L 1904.0 787.0 L 1904.0 774.0 L 1898.0 745.0 L 1891.0 732.0 L 1882.0 723.0 L 1868.0 716.0 L 1851.0 712.0 Z" /><path d="M 982.0 1095.0 L 982.0 1332.0 L 1019.0 1332.0 L 1018.0 1166.0 L 1020.0 1163.0 L 1025.0 1168.0 L 1028.0 1192.0 L 1058.0 1332.0 L 1087.0 1332.0 L 1117.0 1182.0 L 1117.0 1175.0 L 1120.0 1165.0 L 1122.0 1163.0 L 1125.0 1165.0 L 1125.0 1332.0 L 1161.0 1332.0 L 1161.0 1095.0 L 1106.0 1095.0 L 1082.0 1204.0 L 1077.0 1237.0 L 1073.0 1243.0 L 1070.0 1241.0 L 1069.0 1228.0 L 1041.0 1095.0 Z M 808.0 1095.0 L 808.0 1332.0 L 914.0 1332.0 L 914.0 1297.0 L 852.0 1298.0 L 847.0 1293.0 L 848.0 1231.0 L 851.0 1228.0 L 905.0 1228.0 L 905.0 1191.0 L 852.0 1192.0 L 847.0 1187.0 L 847.0 1135.0 L 851.0 1130.0 L 914.0 1130.0 L 914.0 1095.0 Z M 631.0 1095.0 L 631.0 1130.0 L 668.0 1130.0 L 672.0 1135.0 L 672.0 1332.0 L 712.0 1332.0 L 712.0 1134.0 L 716.0 1130.0 L 753.0 1130.0 L 753.0 1095.0 Z M 256.0 1095.0 L 314.0 1249.0 L 314.0 1332.0 L 354.0 1332.0 L 354.0 1246.0 L 409.0 1095.0 L 366.0 1095.0 L 338.0 1192.0 L 338.0 1198.0 L 335.0 1203.0 L 330.0 1200.0 L 301.0 1095.0 Z M 1285.0 1091.0 L 1259.0 1096.0 L 1247.0 1103.0 L 1240.0 1110.0 L 1232.0 1124.0 L 1228.0 1138.0 L 1228.0 1166.0 L 1236.0 1189.0 L 1248.0 1205.0 L 1267.0 1220.0 L 1295.0 1238.0 L 1312.0 1254.0 L 1318.0 1266.0 L 1318.0 1282.0 L 1312.0 1295.0 L 1305.0 1301.0 L 1296.0 1304.0 L 1284.0 1304.0 L 1274.0 1300.0 L 1267.0 1293.0 L 1262.0 1278.0 L 1262.0 1262.0 L 1224.0 1262.0 L 1224.0 1285.0 L 1231.0 1310.0 L 1246.0 1327.0 L 1266.0 1335.0 L 1278.0 1337.0 L 1301.0 1337.0 L 1320.0 1333.0 L 1333.0 1327.0 L 1349.0 1311.0 L 1354.0 1301.0 L 1359.0 1281.0 L 1359.0 1254.0 L 1355.0 1241.0 L 1346.0 1226.0 L 1333.0 1213.0 L 1296.0 1188.0 L 1275.0 1169.0 L 1267.0 1154.0 L 1267.0 1141.0 L 1271.0 1133.0 L 1276.0 1128.0 L 1292.0 1123.0 L 1305.0 1128.0 L 1310.0 1133.0 L 1316.0 1147.0 L 1317.0 1164.0 L 1355.0 1164.0 L 1355.0 1148.0 L 1349.0 1120.0 L 1343.0 1109.0 L 1337.0 1103.0 L 1318.0 1094.0 Z M 534.0 1092.0 L 501.0 1092.0 L 485.0 1096.0 L 474.0 1102.0 L 460.0 1118.0 L 454.0 1133.0 L 452.0 1144.0 L 452.0 1163.0 L 454.0 1173.0 L 464.0 1195.0 L 485.0 1216.0 L 517.0 1236.0 L 531.0 1247.0 L 538.0 1255.0 L 544.0 1269.0 L 544.0 1280.0 L 536.0 1297.0 L 522.0 1304.0 L 509.0 1304.0 L 498.0 1299.0 L 491.0 1291.0 L 487.0 1280.0 L 487.0 1262.0 L 448.0 1262.0 L 450.0 1292.0 L 457.0 1312.0 L 464.0 1321.0 L 474.0 1329.0 L 490.0 1335.0 L 524.0 1337.0 L 550.0 1331.0 L 563.0 1323.0 L 571.0 1315.0 L 579.0 1302.0 L 583.0 1289.0 L 585.0 1276.0 L 585.0 1256.0 L 583.0 1247.0 L 576.0 1232.0 L 561.0 1215.0 L 517.0 1185.0 L 498.0 1166.0 L 491.0 1149.0 L 493.0 1139.0 L 500.0 1129.0 L 513.0 1123.0 L 519.0 1123.0 L 531.0 1128.0 L 538.0 1137.0 L 542.0 1149.0 L 543.0 1164.0 L 581.0 1164.0 L 579.0 1134.0 L 570.0 1111.0 L 558.0 1100.0 Z M 145.0 1091.0 L 132.0 1092.0 L 117.0 1096.0 L 99.0 1109.0 L 90.0 1123.0 L 86.0 1136.0 L 86.0 1169.0 L 93.0 1188.0 L 103.0 1202.0 L 122.0 1218.0 L 160.0 1243.0 L 168.0 1251.0 L 176.0 1267.0 L 176.0 1281.0 L 174.0 1288.0 L 167.0 1298.0 L 158.0 1303.0 L 141.0 1304.0 L 135.0 1302.0 L 126.0 1295.0 L 121.0 1287.0 L 119.0 1279.0 L 119.0 1262.0 L 80.0 1262.0 L 80.0 1281.0 L 82.0 1294.0 L 87.0 1309.0 L 100.0 1325.0 L 112.0 1332.0 L 135.0 1337.0 L 156.0 1337.0 L 183.0 1331.0 L 193.0 1325.0 L 206.0 1312.0 L 213.0 1298.0 L 216.0 1286.0 L 217.0 1254.0 L 209.0 1233.0 L 200.0 1221.0 L 181.0 1205.0 L 152.0 1186.0 L 132.0 1167.0 L 125.0 1153.0 L 125.0 1142.0 L 130.0 1132.0 L 134.0 1128.0 L 143.0 1124.0 L 151.0 1123.0 L 162.0 1127.0 L 169.0 1134.0 L 174.0 1146.0 L 175.0 1164.0 L 213.0 1164.0 L 213.0 1147.0 L 207.0 1120.0 L 200.0 1108.0 L 195.0 1103.0 L 184.0 1097.0 L 167.0 1092.0 Z" /><path d="M 252.0 1474.0 L 252.0 1709.0 L 354.0 1709.0 L 354.0 1675.0 L 294.0 1675.0 L 290.0 1671.0 L 290.0 1474.0 Z M 80.0 1474.0 L 80.0 1709.0 L 185.0 1709.0 L 185.0 1675.0 L 123.0 1675.0 L 119.0 1670.0 L 119.0 1474.0 Z M 467.0 1469.0 L 451.0 1472.0 L 438.0 1478.0 L 423.0 1493.0 L 417.0 1504.0 L 410.0 1526.0 L 406.0 1555.0 L 406.0 1617.0 L 408.0 1638.0 L 414.0 1665.0 L 425.0 1690.0 L 432.0 1699.0 L 441.0 1706.0 L 454.0 1711.0 L 466.0 1713.0 L 488.0 1713.0 L 506.0 1709.0 L 515.0 1705.0 L 534.0 1687.0 L 540.0 1675.0 L 543.0 1664.0 L 545.0 1635.0 L 506.0 1634.0 L 506.0 1652.0 L 500.0 1668.0 L 489.0 1676.0 L 483.0 1678.0 L 471.0 1677.0 L 458.0 1667.0 L 451.0 1649.0 L 448.0 1622.0 L 448.0 1555.0 L 453.0 1523.0 L 459.0 1512.0 L 466.0 1506.0 L 474.0 1503.0 L 486.0 1504.0 L 498.0 1513.0 L 503.0 1523.0 L 506.0 1536.0 L 506.0 1548.0 L 543.0 1547.0 L 543.0 1525.0 L 537.0 1500.0 L 531.0 1489.0 L 523.0 1481.0 L 510.0 1474.0 L 496.0 1470.0 Z" />
  </g>
</svg>