<?xml version='1.0' encoding='utf-8'?>
<svg xmlns="http://www.w3.org/2000/svg" width="2129.92" height="2129.92" viewBox="0 0 2129.92 2129.92" fill="none">
  
  <rect x="0" y="0" width="2129.92" height="2129.92" fill="#FFFFFF" />
<g fill="#000000" fill-rule="evenodd" transform="translate(40.96 40.96)">
    <path d="M 1427.5 333.5 L 1427.5 572.5 L 1511.5 572.5 L 1512.5 571.5 L 1516.5 571.5 L 1517.5 570.5 L 1522.5 570.5 L 1523.5 569.5 L 1525.5 569.5 L 1526.5 568.5 L 1528.5 568.5 L 1529.5 567.5 L 1530.5 567.5 L 1531.5 566.5 L 1532.5 566.5 L 1533.5 565.5 L 1535.5 565.5 L 1537.5 563.5 L 1538.5 563.5 L 1539.5 562.5 L 1540.5 562.5 L 1543.5 559.5 L 1544.5 559.5 L 1551.5 552.5 L 1551.5 551.5 L 1555.5 547.5 L 1555.5 546.5 L 1556.5 545.5 L 1556.5 544.5 L 1557.5 543.5 L 1557.5 542.5 L 1558.5 541.5 L 1558.5 540.5 L 1559.5 539.5 L 1559.5 537.5 L 1560.5 536.5 L 1560.5 535.5 L 1561.5 534.5 L 1561.5 531.5 L 1562.5 530.5 L 1562.5 528.5 L 1563.5 527.5 L 1563.5 522.5 L 1564.5 521.5 L 1564.5 517.5 L 1565.5 516.5 L 1565.5 496.5 L 1564.5 495.5 L 1564.5 490.5 L 1563.5 489.5 L 1563.5 485.5 L 1562.5 484.5 L 1562.5 482.5 L 1561.5 481.5 L 1561.5 478.5 L 1560.5 477.5 L 1560.5 476.5 L 1559.5 475.5 L 1559.5 474.5 L 1558.5 473.5 L 1558.5 472.5 L 1557.5 471.5 L 1557.5 470.5 L 1556.5 469.5 L 1556.5 468.5 L 1555.5 467.5 L 1555.5 466.5 L 1552.5 463.5 L 1552.5 462.5 L 1549.5 459.5 L 1549.5 458.5 L 1545.5 454.5 L 1544.5 454.5 L 1541.5 451.5 L 1540.5 451.5 L 1538.5 449.5 L 1537.5 449.5 L 1536.5 448.5 L 1535.5 448.5 L 1534.5 447.5 L 1533.5 447.5 L 1532.5 446.5 L 1530.5 446.5 L 1527.5 443.5 L 1527.5 442.5 L 1528.5 441.5 L 1529.5 441.5 L 1530.5 440.5 L 1533.5 440.5 L 1534.5 439.5 L 1535.5 439.5 L 1536.5 438.5 L 1537.5 438.5 L 1539.5 436.5 L 1540.5 436.5 L 1548.5 428.5 L 1548.5 427.5 L 1549.5 426.5 L 1549.5 425.5 L 1551.5 423.5 L 1551.5 421.5 L 1552.5 420.5 L 1552.5 419.5 L 1553.5 418.5 L 1553.5 415.5 L 1554.5 414.5 L 1554.5 412.5 L 1555.5 411.5 L 1555.5 405.5 L 1556.5 404.5 L 1556.5 399.5 L 1557.5 398.5 L 1557.5 386.5 L 1556.5 385.5 L 1556.5 379.5 L 1555.5 378.5 L 1555.5 372.5 L 1554.5 371.5 L 1554.5 369.5 L 1553.5 368.5 L 1553.5 365.5 L 1552.5 364.5 L 1552.5 363.5 L 1551.5 362.5 L 1551.5 360.5 L 1550.5 359.5 L 1550.5 358.5 L 1549.5 357.5 L 1549.5 356.5 L 1547.5 354.5 L 1547.5 353.5 L 1546.5 352.5 L 1546.5 351.5 L 1539.5 344.5 L 1538.5 344.5 L 1537.5 343.5 L 1536.5 343.5 L 1534.5 341.5 L 1533.5 341.5 L 1532.5 340.5 L 1531.5 340.5 L 1530.5 339.5 L 1528.5 339.5 L 1527.5 338.5 L 1525.5 338.5 L 1524.5 337.5 L 1519.5 337.5 L 1518.5 336.5 L 1515.5 336.5 L 1514.5 335.5 L 1508.5 335.5 L 1507.5 334.5 L 1500.5 334.5 L 1499.5 333.5 Z M 1470.5 466.5 L 1471.5 465.5 L 1493.5 465.5 L 1494.5 466.5 L 1499.5 466.5 L 1500.5 467.5 L 1501.5 467.5 L 1502.5 468.5 L 1504.5 468.5 L 1505.5 469.5 L 1506.5 469.5 L 1516.5 479.5 L 1516.5 480.5 L 1517.5 481.5 L 1517.5 482.5 L 1518.5 483.5 L 1518.5 485.5 L 1519.5 486.5 L 1519.5 487.5 L 1520.5 488.5 L 1520.5 492.5 L 1521.5 493.5 L 1521.5 497.5 L 1522.5 498.5 L 1522.5 510.5 L 1521.5 511.5 L 1521.5 514.5 L 1520.5 515.5 L 1520.5 518.5 L 1519.5 519.5 L 1519.5 521.5 L 1518.5 522.5 L 1518.5 523.5 L 1517.5 524.5 L 1517.5 525.5 L 1509.5 533.5 L 1508.5 533.5 L 1507.5 534.5 L 1506.5 534.5 L 1505.5 535.5 L 1501.5 535.5 L 1500.5 536.5 L 1472.5 536.5 L 1470.5 534.5 Z M 1472.5 370.5 L 1498.5 370.5 L 1499.5 371.5 L 1501.5 371.5 L 1502.5 372.5 L 1503.5 372.5 L 1504.5 373.5 L 1505.5 373.5 L 1507.5 375.5 L 1507.5 376.5 L 1511.5 380.5 L 1511.5 381.5 L 1512.5 382.5 L 1512.5 384.5 L 1513.5 385.5 L 1513.5 387.5 L 1514.5 388.5 L 1514.5 406.5 L 1513.5 407.5 L 1513.5 410.5 L 1512.5 411.5 L 1512.5 414.5 L 1511.5 415.5 L 1511.5 416.5 L 1510.5 417.5 L 1510.5 418.5 L 1508.5 420.5 L 1508.5 421.5 L 1504.5 425.5 L 1503.5 425.5 L 1502.5 426.5 L 1501.5 426.5 L 1500.5 427.5 L 1499.5 427.5 L 1498.5 428.5 L 1493.5 428.5 L 1492.5 429.5 L 1473.5 429.5 L 1472.5 428.5 L 1471.5 428.5 L 1470.5 427.5 L 1470.5 372.5 Z M 1272.5 333.5 L 1272.5 334.5 L 1271.5 335.5 L 1271.5 338.5 L 1270.5 339.5 L 1270.5 345.5 L 1269.5 346.5 L 1269.5 349.5 L 1268.5 350.5 L 1268.5 355.5 L 1267.5 356.5 L 1267.5 358.5 L 1266.5 359.5 L 1266.5 365.5 L 1265.5 366.5 L 1265.5 369.5 L 1264.5 370.5 L 1264.5 374.5 L 1263.5 375.5 L 1263.5 378.5 L 1262.5 379.5 L 1262.5 384.5 L 1261.5 385.5 L 1261.5 388.5 L 1260.5 389.5 L 1260.5 394.5 L 1259.5 395.5 L 1259.5 397.5 L 1258.5 398.5 L 1258.5 403.5 L 1257.5 404.5 L 1257.5 407.5 L 1256.5 408.5 L 1256.5 413.5 L 1255.5 414.5 L 1255.5 417.5 L 1254.5 418.5 L 1254.5 423.5 L 1253.5 424.5 L 1253.5 427.5 L 1252.5 428.5 L 1252.5 433.5 L 1251.5 434.5 L 1251.5 436.5 L 1250.5 437.5 L 1250.5 443.5 L 1249.5 444.5 L 1249.5 446.5 L 1248.5 447.5 L 1248.5 452.5 L 1247.5 453.5 L 1247.5 456.5 L 1246.5 457.5 L 1246.5 462.5 L 1245.5 463.5 L 1245.5 466.5 L 1244.5 467.5 L 1244.5 472.5 L 1243.5 473.5 L 1243.5 475.5 L 1242.5 476.5 L 1242.5 481.5 L 1241.5 482.5 L 1241.5 485.5 L 1240.5 486.5 L 1240.5 491.5 L 1239.5 492.5 L 1239.5 495.5 L 1238.5 496.5 L 1238.5 501.5 L 1237.5 502.5 L 1237.5 504.5 L 1236.5 505.5 L 1236.5 510.5 L 1235.5 511.5 L 1235.5 514.5 L 1234.5 515.5 L 1234.5 520.5 L 1233.5 521.5 L 1233.5 524.5 L 1232.5 525.5 L 1232.5 530.5 L 1231.5 531.5 L 1231.5 534.5 L 1230.5 535.5 L 1230.5 539.5 L 1229.5 540.5 L 1229.5 543.5 L 1228.5 544.5 L 1228.5 549.5 L 1227.5 550.5 L 1227.5 553.5 L 1226.5 554.5 L 1226.5 559.5 L 1225.5 560.5 L 1225.5 563.5 L 1224.5 564.5 L 1224.5 569.5 L 1223.5 570.5 L 1223.5 572.5 L 1263.5 572.5 L 1263.5 567.5 L 1264.5 566.5 L 1264.5 563.5 L 1265.5 562.5 L 1265.5 556.5 L 1266.5 555.5 L 1266.5 552.5 L 1267.5 551.5 L 1267.5 546.5 L 1268.5 545.5 L 1268.5 542.5 L 1269.5 541.5 L 1269.5 535.5 L 1270.5 534.5 L 1270.5 531.5 L 1271.5 530.5 L 1271.5 525.5 L 1272.5 524.5 L 1272.5 523.5 L 1274.5 521.5 L 1322.5 521.5 L 1325.5 524.5 L 1325.5 527.5 L 1326.5 528.5 L 1326.5 534.5 L 1327.5 535.5 L 1327.5 537.5 L 1328.5 538.5 L 1328.5 544.5 L 1329.5 545.5 L 1329.5 548.5 L 1330.5 549.5 L 1330.5 554.5 L 1331.5 555.5 L 1331.5 559.5 L 1332.5 560.5 L 1332.5 565.5 L 1333.5 566.5 L 1333.5 569.5 L 1334.5 570.5 L 1334.5 572.5 L 1375.5 572.5 L 1375.5 570.5 L 1374.5 569.5 L 1374.5 567.5 L 1373.5 566.5 L 1373.5 562.5 L 1372.5 561.5 L 1372.5 558.5 L 1371.5 557.5 L 1371.5 551.5 L 1370.5 550.5 L 1370.5 548.5 L 1369.5 547.5 L 1369.5 542.5 L 1368.5 541.5 L 1368.5 538.5 L 1367.5 537.5 L 1367.5 532.5 L 1366.5 531.5 L 1366.5 528.5 L 1365.5 527.5 L 1365.5 522.5 L 1364.5 521.5 L 1364.5 518.5 L 1363.5 517.5 L 1363.5 512.5 L 1362.5 511.5 L 1362.5 508.5 L 1361.5 507.5 L 1361.5 503.5 L 1360.5 502.5 L 1360.5 500.5 L 1359.5 499.5 L 1359.5 493.5 L 1358.5 492.5 L 1358.5 489.5 L 1357.5 488.5 L 1357.5 484.5 L 1356.5 483.5 L 1356.5 480.5 L 1355.5 479.5 L 1355.5 474.5 L 1354.5 473.5 L 1354.5 470.5 L 1353.5 469.5 L 1353.5 464.5 L 1352.5 463.5 L 1352.5 460.5 L 1351.5 459.5 L 1351.5 454.5 L 1350.5 453.5 L 1350.5 450.5 L 1349.5 449.5 L 1349.5 444.5 L 1348.5 443.5 L 1348.5 440.5 L 1347.5 439.5 L 1347.5 435.5 L 1346.5 434.5 L 1346.5 430.5 L 1345.5 429.5 L 1345.5 424.5 L 1344.5 423.5 L 1344.5 421.5 L 1343.5 420.5 L 1343.5 415.5 L 1342.5 414.5 L 1342.5 411.5 L 1341.5 410.5 L 1341.5 405.5 L 1340.5 404.5 L 1340.5 402.5 L 1339.5 401.5 L 1339.5 396.5 L 1338.5 395.5 L 1338.5 392.5 L 1337.5 391.5 L 1337.5 386.5 L 1336.5 385.5 L 1336.5 382.5 L 1335.5 381.5 L 1335.5 376.5 L 1334.5 375.5 L 1334.5 372.5 L 1333.5 371.5 L 1333.5 367.5 L 1332.5 366.5 L 1332.5 363.5 L 1331.5 362.5 L 1331.5 357.5 L 1330.5 356.5 L 1330.5 353.5 L 1329.5 352.5 L 1329.5 347.5 L 1328.5 346.5 L 1328.5 343.5 L 1327.5 342.5 L 1327.5 338.5 L 1326.5 337.5 L 1326.5 334.5 L 1325.5 333.5 Z M 1296.5 384.5 L 1297.5 383.5 L 1298.5 383.5 L 1301.5 386.5 L 1301.5 393.5 L 1302.5 394.5 L 1302.5 401.5 L 1303.5 402.5 L 1303.5 405.5 L 1304.5 406.5 L 1304.5 412.5 L 1305.5 413.5 L 1305.5 417.5 L 1306.5 418.5 L 1306.5 425.5 L 1307.5 426.5 L 1307.5 429.5 L 1308.5 430.5 L 1308.5 436.5 L 1309.5 437.5 L 1309.5 441.5 L 1310.5 442.5 L 1310.5 449.5 L 1311.5 450.5 L 1311.5 453.5 L 1312.5 454.5 L 1312.5 459.5 L 1313.5 460.5 L 1313.5 465.5 L 1314.5 466.5 L 1314.5 472.5 L 1315.5 473.5 L 1315.5 476.5 L 1316.5 477.5 L 1316.5 483.5 L 1314.5 485.5 L 1282.5 485.5 L 1279.5 482.5 L 1280.5 481.5 L 1280.5 478.5 L 1281.5 477.5 L 1281.5 472.5 L 1282.5 471.5 L 1282.5 467.5 L 1283.5 466.5 L 1283.5 460.5 L 1284.5 459.5 L 1284.5 456.5 L 1285.5 455.5 L 1285.5 449.5 L 1286.5 448.5 L 1286.5 445.5 L 1287.5 444.5 L 1287.5 437.5 L 1288.5 436.5 L 1288.5 433.5 L 1289.5 432.5 L 1289.5 426.5 L 1290.5 425.5 L 1290.5 422.5 L 1291.5 421.5 L 1291.5 414.5 L 1292.5 413.5 L 1292.5 409.5 L 1293.5 408.5 L 1293.5 402.5 L 1294.5 401.5 L 1294.5 397.5 L 1295.5 396.5 L 1295.5 388.5 L 1296.5 387.5 Z M 1088.5 333.5 L 1088.5 338.5 L 1087.5 339.5 L 1087.5 342.5 L 1086.5 343.5 L 1086.5 347.5 L 1085.5 348.5 L 1085.5 351.5 L 1084.5 352.5 L 1084.5 357.5 L 1083.5 358.5 L 1083.5 361.5 L 1082.5 362.5 L 1082.5 367.5 L 1081.5 368.5 L 1081.5 370.5 L 1080.5 371.5 L 1080.5 376.5 L 1079.5 377.5 L 1079.5 380.5 L 1078.5 381.5 L 1078.5 386.5 L 1077.5 387.5 L 1077.5 390.5 L 1076.5 391.5 L 1076.5 396.5 L 1075.5 397.5 L 1075.5 400.5 L 1074.5 401.5 L 1074.5 406.5 L 1073.5 407.5 L 1073.5 409.5 L 1072.5 410.5 L 1072.5 415.5 L 1071.5 416.5 L 1071.5 419.5 L 1070.5 420.5 L 1070.5 425.5 L 1069.5 426.5 L 1069.5 429.5 L 1068.5 430.5 L 1068.5 435.5 L 1067.5 436.5 L 1067.5 439.5 L 1066.5 440.5 L 1066.5 445.5 L 1065.5 446.5 L 1065.5 448.5 L 1064.5 449.5 L 1064.5 454.5 L 1063.5 455.5 L 1063.5 458.5 L 1062.5 459.5 L 1062.5 464.5 L 1061.5 465.5 L 1061.5 468.5 L 1060.5 469.5 L 1060.5 474.5 L 1059.5 475.5 L 1059.5 477.5 L 1058.5 478.5 L 1058.5 483.5 L 1057.5 484.5 L 1057.5 488.5 L 1056.5 489.5 L 1056.5 493.5 L 1055.5 494.5 L 1055.5 497.5 L 1054.5 498.5 L 1054.5 503.5 L 1053.5 504.5 L 1053.5 507.5 L 1052.5 508.5 L 1052.5 513.5 L 1051.5 514.5 L 1051.5 516.5 L 1050.5 517.5 L 1050.5 523.5 L 1049.5 524.5 L 1049.5 526.5 L 1048.5 527.5 L 1048.5 532.5 L 1047.5 533.5 L 1047.5 536.5 L 1046.5 537.5 L 1046.5 541.5 L 1045.5 542.5 L 1045.5 545.5 L 1044.5 546.5 L 1044.5 552.5 L 1043.5 553.5 L 1043.5 555.5 L 1042.5 556.5 L 1042.5 562.5 L 1041.5 563.5 L 1041.5 565.5 L 1040.5 566.5 L 1040.5 570.5 L 1039.5 571.5 L 1039.5 572.5 L 1079.5 572.5 L 1079.5 569.5 L 1080.5 568.5 L 1080.5 564.5 L 1081.5 563.5 L 1081.5 557.5 L 1082.5 556.5 L 1082.5 553.5 L 1083.5 552.5 L 1083.5 546.5 L 1084.5 545.5 L 1084.5 542.5 L 1085.5 541.5 L 1085.5 536.5 L 1086.5 535.5 L 1086.5 532.5 L 1087.5 531.5 L 1087.5 525.5 L 1088.5 524.5 L 1088.5 523.5 L 1089.5 522.5 L 1090.5 522.5 L 1091.5 521.5 L 1138.5 521.5 L 1139.5 522.5 L 1140.5 522.5 L 1141.5 523.5 L 1141.5 525.5 L 1142.5 526.5 L 1142.5 533.5 L 1143.5 534.5 L 1143.5 537.5 L 1144.5 538.5 L 1144.5 543.5 L 1145.5 544.5 L 1145.5 547.5 L 1146.5 548.5 L 1146.5 554.5 L 1147.5 555.5 L 1147.5 558.5 L 1148.5 559.5 L 1148.5 565.5 L 1149.5 566.5 L 1149.5 568.5 L 1150.5 569.5 L 1150.5 572.5 L 1191.5 572.5 L 1190.5 571.5 L 1190.5 568.5 L 1189.5 567.5 L 1189.5 563.5 L 1188.5 562.5 L 1188.5 559.5 L 1187.5 558.5 L 1187.5 553.5 L 1186.5 552.5 L 1186.5 549.5 L 1185.5 548.5 L 1185.5 543.5 L 1184.5 542.5 L 1184.5 540.5 L 1183.5 539.5 L 1183.5 533.5 L 1182.5 532.5 L 1182.5 530.5 L 1181.5 529.5 L 1181.5 524.5 L 1180.5 523.5 L 1180.5 520.5 L 1179.5 519.5 L 1179.5 514.5 L 1178.5 513.5 L 1178.5 510.5 L 1177.5 509.5 L 1177.5 504.5 L 1176.5 503.5 L 1176.5 500.5 L 1175.5 499.5 L 1175.5 494.5 L 1174.5 493.5 L 1174.5 490.5 L 1173.5 489.5 L 1173.5 484.5 L 1172.5 483.5 L 1172.5 480.5 L 1171.5 479.5 L 1171.5 475.5 L 1170.5 474.5 L 1170.5 470.5 L 1169.5 469.5 L 1169.5 464.5 L 1168.5 463.5 L 1168.5 460.5 L 1167.5 459.5 L 1167.5 454.5 L 1166.5 453.5 L 1166.5 451.5 L 1165.5 450.5 L 1165.5 445.5 L 1164.5 444.5 L 1164.5 441.5 L 1163.5 440.5 L 1163.5 435.5 L 1162.5 434.5 L 1162.5 431.5 L 1161.5 430.5 L 1161.5 425.5 L 1160.5 424.5 L 1160.5 422.5 L 1159.5 421.5 L 1159.5 416.5 L 1158.5 415.5 L 1158.5 412.5 L 1157.5 411.5 L 1157.5 406.5 L 1156.5 405.5 L 1156.5 403.5 L 1155.5 402.5 L 1155.5 396.5 L 1154.5 395.5 L 1154.5 392.5 L 1153.5 391.5 L 1153.5 386.5 L 1152.5 385.5 L 1152.5 382.5 L 1151.5 381.5 L 1151.5 377.5 L 1150.5 376.5 L 1150.5 373.5 L 1149.5 372.5 L 1149.5 366.5 L 1148.5 365.5 L 1148.5 363.5 L 1147.5 362.5 L 1147.5 357.5 L 1146.5 356.5 L 1146.5 354.5 L 1145.5 353.5 L 1145.5 347.5 L 1144.5 346.5 L 1144.5 344.5 L 1143.5 343.5 L 1143.5 338.5 L 1142.5 337.5 L 1142.5 334.5 L 1141.5 333.5 Z M 1112.5 385.5 L 1113.5 384.5 L 1115.5 384.5 L 1117.5 386.5 L 1117.5 393.5 L 1118.5 394.5 L 1118.5 401.5 L 1119.5 402.5 L 1119.5 406.5 L 1120.5 407.5 L 1120.5 414.5 L 1121.5 415.5 L 1121.5 418.5 L 1122.5 419.5 L 1122.5 426.5 L 1123.5 427.5 L 1123.5 430.5 L 1124.5 431.5 L 1124.5 437.5 L 1125.5 438.5 L 1125.5 441.5 L 1126.5 442.5 L 1126.5 449.5 L 1127.5 450.5 L 1127.5 453.5 L 1128.5 454.5 L 1128.5 459.5 L 1129.5 460.5 L 1129.5 464.5 L 1130.5 465.5 L 1130.5 471.5 L 1131.5 472.5 L 1131.5 476.5 L 1132.5 477.5 L 1132.5 483.5 L 1130.5 485.5 L 1098.5 485.5 L 1096.5 483.5 L 1096.5 480.5 L 1097.5 479.5 L 1097.5 473.5 L 1098.5 472.5 L 1098.5 469.5 L 1099.5 468.5 L 1099.5 462.5 L 1100.5 461.5 L 1100.5 458.5 L 1101.5 457.5 L 1101.5 451.5 L 1102.5 450.5 L 1102.5 446.5 L 1103.5 445.5 L 1103.5 440.5 L 1104.5 439.5 L 1104.5 435.5 L 1105.5 434.5 L 1105.5 428.5 L 1106.5 427.5 L 1106.5 424.5 L 1107.5 423.5 L 1107.5 417.5 L 1108.5 416.5 L 1108.5 412.5 L 1109.5 411.5 L 1109.5 405.5 L 1110.5 404.5 L 1110.5 401.5 L 1111.5 400.5 L 1111.5 390.5 L 1112.5 389.5 Z M 847.5 333.5 L 847.5 572.5 L 886.5 572.5 L 886.5 422.5 L 885.5 421.5 L 885.5 417.5 L 886.5 416.5 L 886.5 414.5 L 887.5 413.5 L 888.5 413.5 L 889.5 414.5 L 889.5 415.5 L 890.5 416.5 L 890.5 417.5 L 891.5 418.5 L 891.5 420.5 L 892.5 421.5 L 892.5 424.5 L 893.5 425.5 L 893.5 426.5 L 894.5 427.5 L 894.5 429.5 L 895.5 430.5 L 895.5 432.5 L 896.5 433.5 L 896.5 435.5 L 897.5 436.5 L 897.5 437.5 L 898.5 438.5 L 898.5 441.5 L 899.5 442.5 L 899.5 443.5 L 900.5 444.5 L 900.5 446.5 L 901.5 447.5 L 901.5 448.5 L 902.5 449.5 L 902.5 451.5 L 903.5 452.5 L 903.5 454.5 L 904.5 455.5 L 904.5 457.5 L 905.5 458.5 L 905.5 459.5 L 906.5 460.5 L 906.5 463.5 L 907.5 464.5 L 907.5 465.5 L 908.5 466.5 L 908.5 468.5 L 909.5 469.5 L 909.5 471.5 L 910.5 472.5 L 910.5 474.5 L 911.5 475.5 L 911.5 476.5 L 912.5 477.5 L 912.5 479.5 L 913.5 480.5 L 913.5 482.5 L 914.5 483.5 L 914.5 485.5 L 915.5 486.5 L 915.5 487.5 L 916.5 488.5 L 916.5 491.5 L 917.5 492.5 L 917.5 493.5 L 918.5 494.5 L 918.5 496.5 L 919.5 497.5 L 919.5 499.5 L 920.5 500.5 L 920.5 502.5 L 921.5 503.5 L 921.5 504.5 L 922.5 505.5 L 922.5 507.5 L 923.5 508.5 L 923.5 510.5 L 924.5 511.5 L 924.5 513.5 L 925.5 514.5 L 925.5 516.5 L 926.5 517.5 L 926.5 519.5 L 927.5 520.5 L 927.5 521.5 L 928.5 522.5 L 928.5 525.5 L 929.5 526.5 L 929.5 527.5 L 930.5 528.5 L 930.5 530.5 L 931.5 531.5 L 931.5 533.5 L 932.5 534.5 L 932.5 536.5 L 933.5 537.5 L 933.5 539.5 L 934.5 540.5 L 934.5 542.5 L 935.5 543.5 L 935.5 544.5 L 936.5 545.5 L 936.5 547.5 L 937.5 548.5 L 937.5 550.5 L 938.5 551.5 L 938.5 553.5 L 939.5 554.5 L 939.5 556.5 L 940.5 557.5 L 940.5 559.5 L 941.5 560.5 L 941.5 561.5 L 942.5 562.5 L 942.5 565.5 L 943.5 566.5 L 943.5 567.5 L 944.5 568.5 L 944.5 570.5 L 945.5 571.5 L 945.5 572.5 L 988.5 572.5 L 988.5 333.5 L 950.5 333.5 L 950.5 466.5 L 951.5 467.5 L 951.5 482.5 L 950.5 483.5 L 949.5 483.5 L 948.5 482.5 L 948.5 481.5 L 946.5 479.5 L 946.5 478.5 L 945.5 477.5 L 945.5 474.5 L 944.5 473.5 L 944.5 471.5 L 943.5 470.5 L 943.5 468.5 L 942.5 467.5 L 942.5 465.5 L 941.5 464.5 L 941.5 462.5 L 940.5 461.5 L 940.5 460.5 L 939.5 459.5 L 939.5 456.5 L 938.5 455.5 L 938.5 454.5 L 937.5 453.5 L 937.5 451.5 L 936.5 450.5 L 936.5 448.5 L 935.5 447.5 L 935.5 445.5 L 934.5 444.5 L 934.5 442.5 L 933.5 441.5 L 933.5 440.5 L 932.5 439.5 L 932.5 437.5 L 931.5 436.5 L 931.5 434.5 L 930.5 433.5 L 930.5 432.5 L 929.5 431.5 L 929.5 428.5 L 928.5 427.5 L 928.5 425.5 L 927.5 424.5 L 927.5 422.5 L 926.5 421.5 L 926.5 420.5 L 925.5 419.5 L 925.5 416.5 L 924.5 415.5 L 924.5 414.5 L 923.5 413.5 L 923.5 411.5 L 922.5 410.5 L 922.5 408.5 L 921.5 407.5 L 921.5 405.5 L 920.5 404.5 L 920.5 403.5 L 919.5 402.5 L 919.5 400.5 L 918.5 399.5 L 918.5 397.5 L 917.5 396.5 L 917.5 394.5 L 916.5 393.5 L 916.5 392.5 L 915.5 391.5 L 915.5 388.5 L 914.5 387.5 L 914.5 386.5 L 913.5 385.5 L 913.5 383.5 L 912.5 382.5 L 912.5 380.5 L 911.5 379.5 L 911.5 377.5 L 910.5 376.5 L 910.5 375.5 L 909.5 374.5 L 909.5 372.5 L 908.5 371.5 L 908.5 369.5 L 907.5 368.5 L 907.5 366.5 L 906.5 365.5 L 906.5 364.5 L 905.5 363.5 L 905.5 360.5 L 904.5 359.5 L 904.5 358.5 L 903.5 357.5 L 903.5 355.5 L 902.5 354.5 L 902.5 352.5 L 901.5 351.5 L 901.5 349.5 L 900.5 348.5 L 900.5 346.5 L 899.5 345.5 L 899.5 343.5 L 898.5 342.5 L 898.5 341.5 L 897.5 340.5 L 897.5 338.5 L 896.5 337.5 L 896.5 335.5 L 895.5 334.5 L 895.5 333.5 Z M 690.5 333.5 L 690.5 336.5 L 689.5 337.5 L 689.5 340.5 L 688.5 341.5 L 688.5 347.5 L 687.5 348.5 L 687.5 350.5 L 686.5 351.5 L 686.5 356.5 L 685.5 357.5 L 685.5 360.5 L 684.5 361.5 L 684.5 366.5 L 683.5 367.5 L 683.5 370.5 L 682.5 371.5 L 682.5 375.5 L 681.5 376.5 L 681.5 379.5 L 680.5 380.5 L 680.5 385.5 L 679.5 386.5 L 679.5 389.5 L 678.5 390.5 L 678.5 395.5 L 677.5 396.5 L 677.5 398.5 L 676.5 399.5 L 676.5 404.5 L 675.5 405.5 L 675.5 408.5 L 674.5 409.5 L 674.5 414.5 L 673.5 415.5 L 673.5 418.5 L 672.5 419.5 L 672.5 423.5 L 671.5 424.5 L 671.5 427.5 L 670.5 428.5 L 670.5 433.5 L 669.5 434.5 L 669.5 437.5 L 668.5 438.5 L 668.5 443.5 L 667.5 444.5 L 667.5 446.5 L 666.5 447.5 L 666.5 452.5 L 665.5 453.5 L 665.5 456.5 L 664.5 457.5 L 664.5 462.5 L 663.5 463.5 L 663.5 466.5 L 662.5 467.5 L 662.5 472.5 L 661.5 473.5 L 661.5 476.5 L 660.5 477.5 L 660.5 482.5 L 659.5 483.5 L 659.5 485.5 L 658.5 486.5 L 658.5 491.5 L 657.5 492.5 L 657.5 495.5 L 656.5 496.5 L 656.5 501.5 L 655.5 502.5 L 655.5 505.5 L 654.5 506.5 L 654.5 511.5 L 653.5 512.5 L 653.5 515.5 L 652.5 516.5 L 652.5 521.5 L 651.5 522.5 L 651.5 524.5 L 650.5 525.5 L 650.5 530.5 L 649.5 531.5 L 649.5 534.5 L 648.5 535.5 L 648.5 540.5 L 647.5 541.5 L 647.5 544.5 L 646.5 545.5 L 646.5 550.5 L 645.5 551.5 L 645.5 554.5 L 644.5 555.5 L 644.5 560.5 L 643.5 561.5 L 643.5 564.5 L 642.5 565.5 L 642.5 569.5 L 641.5 570.5 L 641.5 572.5 L 681.5 572.5 L 681.5 567.5 L 682.5 566.5 L 682.5 562.5 L 683.5 561.5 L 683.5 555.5 L 684.5 554.5 L 684.5 551.5 L 685.5 550.5 L 685.5 544.5 L 686.5 543.5 L 686.5 540.5 L 687.5 539.5 L 687.5 534.5 L 688.5 533.5 L 688.5 530.5 L 689.5 529.5 L 689.5 525.5 L 690.5 524.5 L 690.5 523.5 L 692.5 521.5 L 741.5 521.5 L 743.5 523.5 L 743.5 524.5 L 744.5 525.5 L 744.5 530.5 L 745.5 531.5 L 745.5 534.5 L 746.5 535.5 L 746.5 541.5 L 747.5 542.5 L 747.5 545.5 L 748.5 546.5 L 748.5 552.5 L 749.5 553.5 L 749.5 556.5 L 750.5 557.5 L 750.5 563.5 L 751.5 564.5 L 751.5 567.5 L 752.5 568.5 L 752.5 572.5 L 793.5 572.5 L 793.5 567.5 L 792.5 566.5 L 792.5 563.5 L 791.5 562.5 L 791.5 557.5 L 790.5 556.5 L 790.5 553.5 L 789.5 552.5 L 789.5 548.5 L 788.5 547.5 L 788.5 544.5 L 787.5 543.5 L 787.5 538.5 L 786.5 537.5 L 786.5 534.5 L 785.5 533.5 L 785.5 528.5 L 784.5 527.5 L 784.5 524.5 L 783.5 523.5 L 783.5 517.5 L 782.5 516.5 L 782.5 514.5 L 781.5 513.5 L 781.5 508.5 L 780.5 507.5 L 780.5 504.5 L 779.5 503.5 L 779.5 498.5 L 778.5 497.5 L 778.5 494.5 L 777.5 493.5 L 777.5 488.5 L 776.5 487.5 L 776.5 484.5 L 775.5 483.5 L 775.5 478.5 L 774.5 477.5 L 774.5 474.5 L 773.5 473.5 L 773.5 468.5 L 772.5 467.5 L 772.5 465.5 L 771.5 464.5 L 771.5 459.5 L 770.5 458.5 L 770.5 455.5 L 769.5 454.5 L 769.5 449.5 L 768.5 448.5 L 768.5 445.5 L 767.5 444.5 L 767.5 438.5 L 766.5 437.5 L 766.5 435.5 L 765.5 434.5 L 765.5 429.5 L 764.5 428.5 L 764.5 425.5 L 763.5 424.5 L 763.5 419.5 L 762.5 418.5 L 762.5 415.5 L 761.5 414.5 L 761.5 409.5 L 760.5 408.5 L 760.5 405.5 L 759.5 404.5 L 759.5 399.5 L 758.5 398.5 L 758.5 396.5 L 757.5 395.5 L 757.5 390.5 L 756.5 389.5 L 756.5 386.5 L 755.5 385.5 L 755.5 380.5 L 754.5 379.5 L 754.5 376.5 L 753.5 375.5 L 753.5 370.5 L 752.5 369.5 L 752.5 366.5 L 751.5 365.5 L 751.5 361.5 L 750.5 360.5 L 750.5 356.5 L 749.5 355.5 L 749.5 350.5 L 748.5 349.5 L 748.5 347.5 L 747.5 346.5 L 747.5 341.5 L 746.5 340.5 L 746.5 337.5 L 745.5 336.5 L 745.5 333.5 Z M 717.5 383.5 L 718.5 383.5 L 719.5 384.5 L 719.5 388.5 L 720.5 389.5 L 720.5 397.5 L 721.5 398.5 L 721.5 402.5 L 722.5 403.5 L 722.5 409.5 L 723.5 410.5 L 723.5 413.5 L 724.5 414.5 L 724.5 421.5 L 725.5 422.5 L 725.5 425.5 L 726.5 426.5 L 726.5 433.5 L 727.5 434.5 L 727.5 437.5 L 728.5 438.5 L 728.5 445.5 L 729.5 446.5 L 729.5 449.5 L 730.5 450.5 L 730.5 457.5 L 731.5 458.5 L 731.5 461.5 L 732.5 462.5 L 732.5 469.5 L 733.5 470.5 L 733.5 473.5 L 734.5 474.5 L 734.5 481.5 L 735.5 482.5 L 735.5 483.5 L 734.5 484.5 L 733.5 484.5 L 732.5 485.5 L 701.5 485.5 L 700.5 484.5 L 699.5 484.5 L 698.5 483.5 L 698.5 480.5 L 699.5 479.5 L 699.5 474.5 L 700.5 473.5 L 700.5 469.5 L 701.5 468.5 L 701.5 463.5 L 702.5 462.5 L 702.5 458.5 L 703.5 457.5 L 703.5 451.5 L 704.5 450.5 L 704.5 446.5 L 705.5 445.5 L 705.5 439.5 L 706.5 438.5 L 706.5 435.5 L 707.5 434.5 L 707.5 428.5 L 708.5 427.5 L 708.5 423.5 L 709.5 422.5 L 709.5 416.5 L 710.5 415.5 L 710.5 412.5 L 711.5 411.5 L 711.5 404.5 L 712.5 403.5 L 712.5 400.5 L 713.5 399.5 L 713.5 392.5 L 714.5 391.5 L 714.5 386.5 Z M 477.5 333.5 L 477.5 370.5 L 516.5 370.5 L 517.5 371.5 L 518.5 371.5 L 519.5 372.5 L 519.5 572.5 L 562.5 572.5 L 562.5 372.5 L 563.5 371.5 L 564.5 371.5 L 565.5 370.5 L 602.5 370.5 L 602.5 333.5 Z" transform="translate(2.5000 0)" />
    <path d="M 1287.5 1094.5 L 1286.5 1095.5 L 1287.5 1096.5 L 1287.5 1331.5 L 1286.5 1332.5 L 1287.5 1333.5 L 1325.5 1333.5 L 1325.5 1178.5 L 1324.5 1177.5 L 1324.5 1165.5 L 1326.5 1163.5 L 1327.5 1164.5 L 1327.5 1165.5 L 1329.5 1167.5 L 1329.5 1172.5 L 1330.5 1173.5 L 1330.5 1180.5 L 1331.5 1181.5 L 1331.5 1185.5 L 1332.5 1186.5 L 1332.5 1191.5 L 1333.5 1192.5 L 1333.5 1194.5 L 1334.5 1195.5 L 1334.5 1199.5 L 1335.5 1200.5 L 1335.5 1203.5 L 1336.5 1204.5 L 1336.5 1209.5 L 1337.5 1210.5 L 1337.5 1213.5 L 1338.5 1214.5 L 1338.5 1219.5 L 1339.5 1220.5 L 1339.5 1223.5 L 1340.5 1224.5 L 1340.5 1229.5 L 1341.5 1230.5 L 1341.5 1232.5 L 1342.5 1233.5 L 1342.5 1238.5 L 1343.5 1239.5 L 1343.5 1242.5 L 1344.5 1243.5 L 1344.5 1248.5 L 1345.5 1249.5 L 1345.5 1251.5 L 1346.5 1252.5 L 1346.5 1257.5 L 1347.5 1258.5 L 1347.5 1261.5 L 1348.5 1262.5 L 1348.5 1267.5 L 1349.5 1268.5 L 1349.5 1271.5 L 1350.5 1272.5 L 1350.5 1277.5 L 1351.5 1278.5 L 1351.5 1281.5 L 1352.5 1282.5 L 1352.5 1286.5 L 1353.5 1287.5 L 1353.5 1291.5 L 1354.5 1292.5 L 1354.5 1297.5 L 1355.5 1298.5 L 1355.5 1300.5 L 1356.5 1301.5 L 1356.5 1306.5 L 1357.5 1307.5 L 1357.5 1310.5 L 1358.5 1311.5 L 1358.5 1316.5 L 1359.5 1317.5 L 1359.5 1320.5 L 1360.5 1321.5 L 1360.5 1325.5 L 1361.5 1326.5 L 1361.5 1329.5 L 1362.5 1330.5 L 1362.5 1333.5 L 1392.5 1333.5 L 1393.5 1332.5 L 1393.5 1326.5 L 1394.5 1325.5 L 1394.5 1323.5 L 1395.5 1322.5 L 1395.5 1316.5 L 1396.5 1315.5 L 1396.5 1313.5 L 1397.5 1312.5 L 1397.5 1306.5 L 1398.5 1305.5 L 1398.5 1303.5 L 1399.5 1302.5 L 1399.5 1296.5 L 1400.5 1295.5 L 1400.5 1292.5 L 1401.5 1291.5 L 1401.5 1286.5 L 1402.5 1285.5 L 1402.5 1282.5 L 1403.5 1281.5 L 1403.5 1276.5 L 1404.5 1275.5 L 1404.5 1272.5 L 1405.5 1271.5 L 1405.5 1266.5 L 1406.5 1265.5 L 1406.5 1262.5 L 1407.5 1261.5 L 1407.5 1256.5 L 1408.5 1255.5 L 1408.5 1252.5 L 1409.5 1251.5 L 1409.5 1246.5 L 1410.5 1245.5 L 1410.5 1242.5 L 1411.5 1241.5 L 1411.5 1236.5 L 1412.5 1235.5 L 1412.5 1232.5 L 1413.5 1231.5 L 1413.5 1226.5 L 1414.5 1225.5 L 1414.5 1222.5 L 1415.5 1221.5 L 1415.5 1216.5 L 1416.5 1215.5 L 1416.5 1212.5 L 1417.5 1211.5 L 1417.5 1206.5 L 1418.5 1205.5 L 1418.5 1202.5 L 1419.5 1201.5 L 1419.5 1196.5 L 1420.5 1195.5 L 1420.5 1192.5 L 1421.5 1191.5 L 1421.5 1185.5 L 1422.5 1184.5 L 1422.5 1182.5 L 1423.5 1181.5 L 1423.5 1174.5 L 1424.5 1173.5 L 1424.5 1170.5 L 1425.5 1169.5 L 1425.5 1166.5 L 1426.5 1165.5 L 1426.5 1164.5 L 1427.5 1163.5 L 1428.5 1163.5 L 1429.5 1164.5 L 1429.5 1168.5 L 1430.5 1169.5 L 1430.5 1173.5 L 1429.5 1174.5 L 1429.5 1332.5 L 1430.5 1333.5 L 1467.5 1333.5 L 1467.5 1094.5 L 1410.5 1094.5 L 1410.5 1097.5 L 1409.5 1098.5 L 1409.5 1100.5 L 1408.5 1101.5 L 1408.5 1106.5 L 1407.5 1107.5 L 1407.5 1110.5 L 1406.5 1111.5 L 1406.5 1116.5 L 1405.5 1117.5 L 1405.5 1119.5 L 1404.5 1120.5 L 1404.5 1125.5 L 1403.5 1126.5 L 1403.5 1129.5 L 1402.5 1130.5 L 1402.5 1135.5 L 1401.5 1136.5 L 1401.5 1138.5 L 1400.5 1139.5 L 1400.5 1143.5 L 1399.5 1144.5 L 1399.5 1148.5 L 1398.5 1149.5 L 1398.5 1154.5 L 1397.5 1155.5 L 1397.5 1157.5 L 1396.5 1158.5 L 1396.5 1163.5 L 1395.5 1164.5 L 1395.5 1167.5 L 1394.5 1168.5 L 1394.5 1172.5 L 1393.5 1173.5 L 1393.5 1176.5 L 1392.5 1177.5 L 1392.5 1182.5 L 1391.5 1183.5 L 1391.5 1185.5 L 1390.5 1186.5 L 1390.5 1191.5 L 1389.5 1192.5 L 1389.5 1195.5 L 1388.5 1196.5 L 1388.5 1200.5 L 1387.5 1201.5 L 1387.5 1204.5 L 1386.5 1205.5 L 1386.5 1211.5 L 1385.5 1212.5 L 1385.5 1214.5 L 1384.5 1215.5 L 1384.5 1221.5 L 1383.5 1222.5 L 1383.5 1224.5 L 1382.5 1225.5 L 1382.5 1231.5 L 1381.5 1232.5 L 1381.5 1238.5 L 1380.5 1239.5 L 1380.5 1240.5 L 1379.5 1241.5 L 1379.5 1242.5 L 1378.5 1243.5 L 1377.5 1243.5 L 1376.5 1242.5 L 1376.5 1237.5 L 1375.5 1236.5 L 1375.5 1229.5 L 1374.5 1228.5 L 1374.5 1225.5 L 1373.5 1224.5 L 1373.5 1219.5 L 1372.5 1218.5 L 1372.5 1215.5 L 1371.5 1214.5 L 1371.5 1209.5 L 1370.5 1208.5 L 1370.5 1204.5 L 1369.5 1203.5 L 1369.5 1199.5 L 1368.5 1198.5 L 1368.5 1195.5 L 1367.5 1194.5 L 1367.5 1189.5 L 1366.5 1188.5 L 1366.5 1186.5 L 1365.5 1185.5 L 1365.5 1180.5 L 1364.5 1179.5 L 1364.5 1176.5 L 1363.5 1175.5 L 1363.5 1170.5 L 1362.5 1169.5 L 1362.5 1167.5 L 1361.5 1166.5 L 1361.5 1161.5 L 1360.5 1160.5 L 1360.5 1157.5 L 1359.5 1156.5 L 1359.5 1151.5 L 1358.5 1150.5 L 1358.5 1148.5 L 1357.5 1147.5 L 1357.5 1142.5 L 1356.5 1141.5 L 1356.5 1138.5 L 1355.5 1137.5 L 1355.5 1133.5 L 1354.5 1132.5 L 1354.5 1129.5 L 1353.5 1128.5 L 1353.5 1123.5 L 1352.5 1122.5 L 1352.5 1120.5 L 1351.5 1119.5 L 1351.5 1114.5 L 1350.5 1113.5 L 1350.5 1110.5 L 1349.5 1109.5 L 1349.5 1104.5 L 1348.5 1103.5 L 1348.5 1100.5 L 1347.5 1099.5 L 1347.5 1095.5 L 1346.5 1094.5 Z M 1112.5 1094.5 L 1112.5 1333.5 L 1220.5 1333.5 L 1220.5 1297.5 L 1219.5 1296.5 L 1218.5 1296.5 L 1217.5 1297.5 L 1216.5 1296.5 L 1215.5 1296.5 L 1214.5 1297.5 L 1156.5 1297.5 L 1153.5 1294.5 L 1153.5 1232.5 L 1154.5 1231.5 L 1154.5 1230.5 L 1155.5 1229.5 L 1211.5 1229.5 L 1211.5 1190.5 L 1210.5 1191.5 L 1197.5 1191.5 L 1196.5 1190.5 L 1195.5 1190.5 L 1194.5 1191.5 L 1174.5 1191.5 L 1173.5 1190.5 L 1167.5 1190.5 L 1166.5 1191.5 L 1161.5 1191.5 L 1160.5 1190.5 L 1159.5 1190.5 L 1158.5 1191.5 L 1156.5 1191.5 L 1153.5 1188.5 L 1153.5 1134.5 L 1154.5 1133.5 L 1154.5 1132.5 L 1155.5 1131.5 L 1219.5 1131.5 L 1220.5 1130.5 L 1220.5 1094.5 Z M 935.5 1094.5 L 935.5 1130.5 L 936.5 1131.5 L 974.5 1131.5 L 975.5 1132.5 L 975.5 1133.5 L 976.5 1134.5 L 976.5 1333.5 L 1018.5 1333.5 L 1018.5 1133.5 L 1020.5 1131.5 L 1058.5 1131.5 L 1059.5 1130.5 L 1059.5 1094.5 Z M 560.5 1094.5 L 560.5 1095.5 L 561.5 1096.5 L 561.5 1097.5 L 562.5 1098.5 L 562.5 1100.5 L 563.5 1101.5 L 563.5 1102.5 L 564.5 1103.5 L 564.5 1105.5 L 565.5 1106.5 L 565.5 1107.5 L 566.5 1108.5 L 566.5 1110.5 L 567.5 1111.5 L 567.5 1113.5 L 568.5 1114.5 L 568.5 1116.5 L 569.5 1117.5 L 569.5 1118.5 L 570.5 1119.5 L 570.5 1121.5 L 571.5 1122.5 L 571.5 1124.5 L 572.5 1125.5 L 572.5 1126.5 L 573.5 1127.5 L 573.5 1129.5 L 574.5 1130.5 L 574.5 1132.5 L 575.5 1133.5 L 575.5 1134.5 L 576.5 1135.5 L 576.5 1137.5 L 577.5 1138.5 L 577.5 1139.5 L 578.5 1140.5 L 578.5 1142.5 L 579.5 1143.5 L 579.5 1145.5 L 580.5 1146.5 L 580.5 1147.5 L 581.5 1148.5 L 581.5 1150.5 L 582.5 1151.5 L 582.5 1153.5 L 583.5 1154.5 L 583.5 1155.5 L 584.5 1156.5 L 584.5 1158.5 L 585.5 1159.5 L 585.5 1160.5 L 586.5 1161.5 L 586.5 1163.5 L 587.5 1164.5 L 587.5 1166.5 L 588.5 1167.5 L 588.5 1169.5 L 589.5 1170.5 L 589.5 1171.5 L 590.5 1172.5 L 590.5 1174.5 L 591.5 1175.5 L 591.5 1176.5 L 592.5 1177.5 L 592.5 1179.5 L 593.5 1180.5 L 593.5 1181.5 L 594.5 1182.5 L 594.5 1185.5 L 595.5 1186.5 L 595.5 1187.5 L 596.5 1188.5 L 596.5 1190.5 L 597.5 1191.5 L 597.5 1192.5 L 598.5 1193.5 L 598.5 1195.5 L 599.5 1196.5 L 599.5 1197.5 L 600.5 1198.5 L 600.5 1201.5 L 601.5 1202.5 L 601.5 1203.5 L 602.5 1204.5 L 602.5 1206.5 L 603.5 1207.5 L 603.5 1208.5 L 604.5 1209.5 L 604.5 1211.5 L 605.5 1212.5 L 605.5 1214.5 L 606.5 1215.5 L 606.5 1217.5 L 607.5 1218.5 L 607.5 1219.5 L 608.5 1220.5 L 608.5 1222.5 L 609.5 1223.5 L 609.5 1225.5 L 610.5 1226.5 L 610.5 1228.5 L 611.5 1229.5 L 611.5 1230.5 L 612.5 1231.5 L 612.5 1233.5 L 613.5 1234.5 L 613.5 1236.5 L 614.5 1237.5 L 614.5 1239.5 L 615.5 1240.5 L 615.5 1241.5 L 616.5 1242.5 L 616.5 1245.5 L 617.5 1246.5 L 617.5 1247.5 L 618.5 1248.5 L 618.5 1333.5 L 659.5 1333.5 L 660.5 1332.5 L 660.5 1251.5 L 659.5 1250.5 L 659.5 1249.5 L 660.5 1248.5 L 660.5 1245.5 L 661.5 1244.5 L 661.5 1242.5 L 662.5 1241.5 L 662.5 1239.5 L 663.5 1238.5 L 663.5 1236.5 L 664.5 1235.5 L 664.5 1234.5 L 665.5 1233.5 L 665.5 1231.5 L 666.5 1230.5 L 666.5 1228.5 L 667.5 1227.5 L 667.5 1225.5 L 668.5 1224.5 L 668.5 1222.5 L 669.5 1221.5 L 669.5 1219.5 L 670.5 1218.5 L 670.5 1217.5 L 671.5 1216.5 L 671.5 1214.5 L 672.5 1213.5 L 672.5 1212.5 L 673.5 1211.5 L 673.5 1209.5 L 674.5 1208.5 L 674.5 1206.5 L 675.5 1205.5 L 675.5 1203.5 L 676.5 1202.5 L 676.5 1201.5 L 677.5 1200.5 L 677.5 1198.5 L 678.5 1197.5 L 678.5 1195.5 L 679.5 1194.5 L 679.5 1192.5 L 680.5 1191.5 L 680.5 1190.5 L 681.5 1189.5 L 681.5 1187.5 L 682.5 1186.5 L 682.5 1184.5 L 683.5 1183.5 L 683.5 1182.5 L 684.5 1181.5 L 684.5 1179.5 L 685.5 1178.5 L 685.5 1176.5 L 686.5 1175.5 L 686.5 1174.5 L 687.5 1173.5 L 687.5 1171.5 L 688.5 1170.5 L 688.5 1168.5 L 689.5 1167.5 L 689.5 1165.5 L 690.5 1164.5 L 690.5 1163.5 L 691.5 1162.5 L 691.5 1160.5 L 692.5 1159.5 L 692.5 1158.5 L 693.5 1157.5 L 693.5 1155.5 L 694.5 1154.5 L 694.5 1152.5 L 695.5 1151.5 L 695.5 1149.5 L 696.5 1148.5 L 696.5 1147.5 L 697.5 1146.5 L 697.5 1144.5 L 698.5 1143.5 L 698.5 1142.5 L 699.5 1141.5 L 699.5 1139.5 L 700.5 1138.5 L 700.5 1136.5 L 701.5 1135.5 L 701.5 1133.5 L 702.5 1132.5 L 702.5 1131.5 L 703.5 1130.5 L 703.5 1128.5 L 704.5 1127.5 L 704.5 1125.5 L 705.5 1124.5 L 705.5 1122.5 L 706.5 1121.5 L 706.5 1120.5 L 707.5 1119.5 L 707.5 1117.5 L 708.5 1116.5 L 708.5 1114.5 L 709.5 1113.5 L 709.5 1111.5 L 710.5 1110.5 L 710.5 1109.5 L 711.5 1108.5 L 711.5 1106.5 L 712.5 1105.5 L 712.5 1103.5 L 713.5 1102.5 L 713.5 1100.5 L 714.5 1099.5 L 714.5 1098.5 L 715.5 1097.5 L 715.5 1094.5 L 671.5 1094.5 L 670.5 1095.5 L 670.5 1098.5 L 669.5 1099.5 L 669.5 1101.5 L 668.5 1102.5 L 668.5 1105.5 L 667.5 1106.5 L 667.5 1108.5 L 666.5 1109.5 L 666.5 1112.5 L 665.5 1113.5 L 665.5 1115.5 L 664.5 1116.5 L 664.5 1119.5 L 663.5 1120.5 L 663.5 1122.5 L 662.5 1123.5 L 662.5 1126.5 L 661.5 1127.5 L 661.5 1129.5 L 660.5 1130.5 L 660.5 1133.5 L 659.5 1134.5 L 659.5 1136.5 L 658.5 1137.5 L 658.5 1140.5 L 657.5 1141.5 L 657.5 1143.5 L 656.5 1144.5 L 656.5 1147.5 L 655.5 1148.5 L 655.5 1150.5 L 654.5 1151.5 L 654.5 1154.5 L 653.5 1155.5 L 653.5 1157.5 L 652.5 1158.5 L 652.5 1161.5 L 651.5 1162.5 L 651.5 1164.5 L 650.5 1165.5 L 650.5 1168.5 L 649.5 1169.5 L 649.5 1171.5 L 648.5 1172.5 L 648.5 1176.5 L 647.5 1177.5 L 647.5 1178.5 L 646.5 1179.5 L 646.5 1182.5 L 645.5 1183.5 L 645.5 1185.5 L 644.5 1186.5 L 644.5 1189.5 L 643.5 1190.5 L 643.5 1192.5 L 642.5 1193.5 L 642.5 1199.5 L 641.5 1200.5 L 641.5 1202.5 L 640.5 1203.5 L 639.5 1203.5 L 638.5 1202.5 L 637.5 1202.5 L 636.5 1201.5 L 636.5 1198.5 L 635.5 1197.5 L 635.5 1193.5 L 634.5 1192.5 L 634.5 1190.5 L 633.5 1189.5 L 633.5 1186.5 L 632.5 1185.5 L 632.5 1183.5 L 631.5 1182.5 L 631.5 1179.5 L 630.5 1178.5 L 630.5 1176.5 L 629.5 1175.5 L 629.5 1172.5 L 628.5 1171.5 L 628.5 1170.5 L 627.5 1169.5 L 627.5 1165.5 L 626.5 1164.5 L 626.5 1162.5 L 625.5 1161.5 L 625.5 1158.5 L 624.5 1157.5 L 624.5 1155.5 L 623.5 1154.5 L 623.5 1151.5 L 622.5 1150.5 L 622.5 1149.5 L 621.5 1148.5 L 621.5 1144.5 L 620.5 1143.5 L 620.5 1141.5 L 619.5 1140.5 L 619.5 1137.5 L 618.5 1136.5 L 618.5 1134.5 L 617.5 1133.5 L 617.5 1130.5 L 616.5 1129.5 L 616.5 1127.5 L 615.5 1126.5 L 615.5 1123.5 L 614.5 1122.5 L 614.5 1120.5 L 613.5 1119.5 L 613.5 1116.5 L 612.5 1115.5 L 612.5 1113.5 L 611.5 1112.5 L 611.5 1109.5 L 610.5 1108.5 L 610.5 1106.5 L 609.5 1105.5 L 609.5 1102.5 L 608.5 1101.5 L 608.5 1099.5 L 607.5 1098.5 L 607.5 1095.5 L 606.5 1094.5 Z M 1591.5 1090.5 L 1590.5 1091.5 L 1580.5 1091.5 L 1579.5 1092.5 L 1576.5 1092.5 L 1575.5 1093.5 L 1571.5 1093.5 L 1570.5 1094.5 L 1569.5 1094.5 L 1568.5 1095.5 L 1565.5 1095.5 L 1564.5 1096.5 L 1563.5 1096.5 L 1562.5 1097.5 L 1561.5 1097.5 L 1560.5 1098.5 L 1559.5 1098.5 L 1558.5 1099.5 L 1557.5 1099.5 L 1555.5 1101.5 L 1554.5 1101.5 L 1552.5 1103.5 L 1551.5 1103.5 L 1545.5 1109.5 L 1545.5 1110.5 L 1543.5 1112.5 L 1543.5 1113.5 L 1541.5 1115.5 L 1541.5 1116.5 L 1540.5 1117.5 L 1540.5 1118.5 L 1538.5 1120.5 L 1538.5 1122.5 L 1537.5 1123.5 L 1537.5 1124.5 L 1536.5 1125.5 L 1536.5 1127.5 L 1535.5 1128.5 L 1535.5 1129.5 L 1534.5 1130.5 L 1534.5 1134.5 L 1533.5 1135.5 L 1533.5 1138.5 L 1532.5 1139.5 L 1532.5 1165.5 L 1533.5 1166.5 L 1533.5 1168.5 L 1534.5 1169.5 L 1534.5 1173.5 L 1535.5 1174.5 L 1535.5 1176.5 L 1536.5 1177.5 L 1536.5 1179.5 L 1537.5 1180.5 L 1537.5 1181.5 L 1538.5 1182.5 L 1538.5 1184.5 L 1539.5 1185.5 L 1539.5 1186.5 L 1540.5 1187.5 L 1540.5 1188.5 L 1541.5 1189.5 L 1541.5 1190.5 L 1543.5 1192.5 L 1543.5 1193.5 L 1544.5 1194.5 L 1544.5 1195.5 L 1547.5 1198.5 L 1547.5 1199.5 L 1553.5 1205.5 L 1553.5 1206.5 L 1554.5 1207.5 L 1555.5 1207.5 L 1559.5 1211.5 L 1560.5 1211.5 L 1564.5 1215.5 L 1565.5 1215.5 L 1567.5 1217.5 L 1568.5 1217.5 L 1571.5 1220.5 L 1572.5 1220.5 L 1573.5 1221.5 L 1574.5 1221.5 L 1577.5 1224.5 L 1578.5 1224.5 L 1579.5 1225.5 L 1580.5 1225.5 L 1583.5 1228.5 L 1584.5 1228.5 L 1585.5 1229.5 L 1586.5 1229.5 L 1589.5 1232.5 L 1590.5 1232.5 L 1591.5 1233.5 L 1592.5 1233.5 L 1595.5 1236.5 L 1596.5 1236.5 L 1598.5 1238.5 L 1599.5 1238.5 L 1603.5 1242.5 L 1604.5 1242.5 L 1607.5 1245.5 L 1608.5 1245.5 L 1613.5 1250.5 L 1613.5 1251.5 L 1617.5 1255.5 L 1617.5 1256.5 L 1619.5 1258.5 L 1619.5 1259.5 L 1620.5 1260.5 L 1620.5 1262.5 L 1621.5 1263.5 L 1621.5 1264.5 L 1622.5 1265.5 L 1622.5 1283.5 L 1621.5 1284.5 L 1621.5 1286.5 L 1620.5 1287.5 L 1620.5 1289.5 L 1619.5 1290.5 L 1619.5 1291.5 L 1617.5 1293.5 L 1617.5 1294.5 L 1612.5 1299.5 L 1611.5 1299.5 L 1609.5 1301.5 L 1607.5 1301.5 L 1606.5 1302.5 L 1603.5 1302.5 L 1602.5 1303.5 L 1588.5 1303.5 L 1587.5 1302.5 L 1585.5 1302.5 L 1584.5 1301.5 L 1582.5 1301.5 L 1581.5 1300.5 L 1580.5 1300.5 L 1579.5 1299.5 L 1578.5 1299.5 L 1573.5 1294.5 L 1573.5 1293.5 L 1572.5 1292.5 L 1572.5 1291.5 L 1571.5 1290.5 L 1571.5 1289.5 L 1570.5 1288.5 L 1570.5 1286.5 L 1569.5 1285.5 L 1569.5 1280.5 L 1568.5 1279.5 L 1568.5 1261.5 L 1528.5 1261.5 L 1528.5 1284.5 L 1529.5 1285.5 L 1529.5 1289.5 L 1530.5 1290.5 L 1530.5 1295.5 L 1531.5 1296.5 L 1531.5 1298.5 L 1532.5 1299.5 L 1532.5 1302.5 L 1533.5 1303.5 L 1533.5 1304.5 L 1534.5 1305.5 L 1534.5 1307.5 L 1535.5 1308.5 L 1535.5 1309.5 L 1536.5 1310.5 L 1536.5 1311.5 L 1538.5 1313.5 L 1538.5 1314.5 L 1539.5 1315.5 L 1539.5 1316.5 L 1550.5 1327.5 L 1551.5 1327.5 L 1552.5 1328.5 L 1553.5 1328.5 L 1555.5 1330.5 L 1556.5 1330.5 L 1557.5 1331.5 L 1558.5 1331.5 L 1559.5 1332.5 L 1561.5 1332.5 L 1562.5 1333.5 L 1564.5 1333.5 L 1565.5 1334.5 L 1567.5 1334.5 L 1568.5 1335.5 L 1571.5 1335.5 L 1572.5 1336.5 L 1577.5 1336.5 L 1578.5 1337.5 L 1583.5 1337.5 L 1584.5 1338.5 L 1605.5 1338.5 L 1606.5 1337.5 L 1610.5 1337.5 L 1611.5 1336.5 L 1616.5 1336.5 L 1617.5 1335.5 L 1620.5 1335.5 L 1621.5 1334.5 L 1624.5 1334.5 L 1625.5 1333.5 L 1626.5 1333.5 L 1627.5 1332.5 L 1629.5 1332.5 L 1630.5 1331.5 L 1631.5 1331.5 L 1632.5 1330.5 L 1634.5 1330.5 L 1636.5 1328.5 L 1637.5 1328.5 L 1638.5 1327.5 L 1639.5 1327.5 L 1643.5 1323.5 L 1644.5 1323.5 L 1651.5 1316.5 L 1651.5 1315.5 L 1654.5 1312.5 L 1654.5 1311.5 L 1655.5 1310.5 L 1655.5 1309.5 L 1657.5 1307.5 L 1657.5 1305.5 L 1658.5 1304.5 L 1658.5 1303.5 L 1659.5 1302.5 L 1659.5 1301.5 L 1660.5 1300.5 L 1660.5 1298.5 L 1661.5 1297.5 L 1661.5 1295.5 L 1662.5 1294.5 L 1662.5 1292.5 L 1663.5 1291.5 L 1663.5 1286.5 L 1664.5 1285.5 L 1664.5 1281.5 L 1665.5 1280.5 L 1665.5 1255.5 L 1664.5 1254.5 L 1664.5 1251.5 L 1663.5 1250.5 L 1663.5 1247.5 L 1662.5 1246.5 L 1662.5 1245.5 L 1661.5 1244.5 L 1661.5 1242.5 L 1660.5 1241.5 L 1660.5 1240.5 L 1659.5 1239.5 L 1659.5 1238.5 L 1658.5 1237.5 L 1658.5 1236.5 L 1657.5 1235.5 L 1657.5 1234.5 L 1655.5 1232.5 L 1655.5 1231.5 L 1652.5 1228.5 L 1652.5 1227.5 L 1637.5 1212.5 L 1636.5 1212.5 L 1633.5 1209.5 L 1632.5 1209.5 L 1629.5 1206.5 L 1628.5 1206.5 L 1626.5 1204.5 L 1625.5 1204.5 L 1622.5 1201.5 L 1621.5 1201.5 L 1619.5 1199.5 L 1618.5 1199.5 L 1616.5 1197.5 L 1615.5 1197.5 L 1614.5 1196.5 L 1613.5 1196.5 L 1610.5 1193.5 L 1609.5 1193.5 L 1607.5 1191.5 L 1606.5 1191.5 L 1603.5 1188.5 L 1602.5 1188.5 L 1601.5 1187.5 L 1600.5 1187.5 L 1596.5 1183.5 L 1595.5 1183.5 L 1592.5 1180.5 L 1591.5 1180.5 L 1581.5 1170.5 L 1581.5 1169.5 L 1579.5 1167.5 L 1579.5 1166.5 L 1577.5 1164.5 L 1577.5 1163.5 L 1576.5 1162.5 L 1576.5 1161.5 L 1575.5 1160.5 L 1575.5 1159.5 L 1574.5 1158.5 L 1574.5 1156.5 L 1573.5 1155.5 L 1573.5 1150.5 L 1572.5 1149.5 L 1572.5 1147.5 L 1573.5 1146.5 L 1573.5 1140.5 L 1574.5 1139.5 L 1574.5 1138.5 L 1575.5 1137.5 L 1575.5 1136.5 L 1576.5 1135.5 L 1576.5 1134.5 L 1582.5 1128.5 L 1583.5 1128.5 L 1584.5 1127.5 L 1585.5 1127.5 L 1586.5 1126.5 L 1588.5 1126.5 L 1589.5 1125.5 L 1592.5 1125.5 L 1593.5 1124.5 L 1598.5 1124.5 L 1599.5 1125.5 L 1602.5 1125.5 L 1603.5 1126.5 L 1605.5 1126.5 L 1606.5 1127.5 L 1607.5 1127.5 L 1608.5 1128.5 L 1609.5 1128.5 L 1615.5 1134.5 L 1615.5 1135.5 L 1616.5 1136.5 L 1616.5 1137.5 L 1617.5 1138.5 L 1617.5 1139.5 L 1618.5 1140.5 L 1618.5 1142.5 L 1619.5 1143.5 L 1619.5 1145.5 L 1620.5 1146.5 L 1620.5 1152.5 L 1621.5 1153.5 L 1621.5 1164.5 L 1622.5 1165.5 L 1661.5 1165.5 L 1661.5 1149.5 L 1660.5 1148.5 L 1660.5 1142.5 L 1659.5 1141.5 L 1659.5 1134.5 L 1658.5 1133.5 L 1658.5 1131.5 L 1657.5 1130.5 L 1657.5 1127.5 L 1656.5 1126.5 L 1656.5 1124.5 L 1655.5 1123.5 L 1655.5 1121.5 L 1654.5 1120.5 L 1654.5 1119.5 L 1653.5 1118.5 L 1653.5 1117.5 L 1652.5 1116.5 L 1652.5 1115.5 L 1650.5 1113.5 L 1650.5 1112.5 L 1649.5 1111.5 L 1649.5 1110.5 L 1641.5 1102.5 L 1640.5 1102.5 L 1638.5 1100.5 L 1637.5 1100.5 L 1636.5 1099.5 L 1635.5 1099.5 L 1634.5 1098.5 L 1633.5 1098.5 L 1632.5 1097.5 L 1631.5 1097.5 L 1630.5 1096.5 L 1629.5 1096.5 L 1628.5 1095.5 L 1625.5 1095.5 L 1624.5 1094.5 L 1623.5 1094.5 L 1622.5 1093.5 L 1617.5 1093.5 L 1616.5 1092.5 L 1612.5 1092.5 L 1611.5 1091.5 L 1602.5 1091.5 L 1601.5 1090.5 Z M 820.5 1090.5 L 819.5 1091.5 L 807.5 1091.5 L 806.5 1092.5 L 802.5 1092.5 L 801.5 1093.5 L 797.5 1093.5 L 796.5 1094.5 L 794.5 1094.5 L 793.5 1095.5 L 791.5 1095.5 L 790.5 1096.5 L 789.5 1096.5 L 788.5 1097.5 L 787.5 1097.5 L 786.5 1098.5 L 785.5 1098.5 L 784.5 1099.5 L 783.5 1099.5 L 781.5 1101.5 L 780.5 1101.5 L 779.5 1102.5 L 778.5 1102.5 L 769.5 1111.5 L 769.5 1112.5 L 767.5 1114.5 L 767.5 1115.5 L 765.5 1117.5 L 765.5 1118.5 L 764.5 1119.5 L 764.5 1120.5 L 763.5 1121.5 L 763.5 1122.5 L 762.5 1123.5 L 762.5 1124.5 L 761.5 1125.5 L 761.5 1127.5 L 760.5 1128.5 L 760.5 1130.5 L 759.5 1131.5 L 759.5 1133.5 L 758.5 1134.5 L 758.5 1139.5 L 757.5 1140.5 L 757.5 1144.5 L 756.5 1145.5 L 756.5 1162.5 L 757.5 1163.5 L 757.5 1166.5 L 758.5 1167.5 L 758.5 1172.5 L 759.5 1173.5 L 759.5 1175.5 L 760.5 1176.5 L 760.5 1178.5 L 761.5 1179.5 L 761.5 1180.5 L 762.5 1181.5 L 762.5 1183.5 L 763.5 1184.5 L 763.5 1185.5 L 764.5 1186.5 L 764.5 1187.5 L 765.5 1188.5 L 765.5 1189.5 L 766.5 1190.5 L 766.5 1191.5 L 768.5 1193.5 L 768.5 1194.5 L 769.5 1195.5 L 769.5 1196.5 L 773.5 1200.5 L 773.5 1201.5 L 783.5 1211.5 L 784.5 1211.5 L 789.5 1216.5 L 790.5 1216.5 L 791.5 1217.5 L 792.5 1217.5 L 795.5 1220.5 L 796.5 1220.5 L 797.5 1221.5 L 798.5 1221.5 L 801.5 1224.5 L 802.5 1224.5 L 803.5 1225.5 L 804.5 1225.5 L 806.5 1227.5 L 807.5 1227.5 L 809.5 1229.5 L 810.5 1229.5 L 812.5 1231.5 L 813.5 1231.5 L 814.5 1232.5 L 815.5 1232.5 L 817.5 1234.5 L 818.5 1234.5 L 820.5 1236.5 L 821.5 1236.5 L 824.5 1239.5 L 825.5 1239.5 L 827.5 1241.5 L 828.5 1241.5 L 834.5 1247.5 L 835.5 1247.5 L 838.5 1250.5 L 838.5 1251.5 L 843.5 1256.5 L 843.5 1257.5 L 844.5 1258.5 L 844.5 1259.5 L 845.5 1260.5 L 845.5 1261.5 L 846.5 1262.5 L 846.5 1264.5 L 847.5 1265.5 L 847.5 1267.5 L 848.5 1268.5 L 848.5 1281.5 L 847.5 1282.5 L 847.5 1284.5 L 846.5 1285.5 L 846.5 1288.5 L 845.5 1289.5 L 845.5 1290.5 L 844.5 1291.5 L 844.5 1292.5 L 841.5 1295.5 L 841.5 1296.5 L 839.5 1298.5 L 838.5 1298.5 L 836.5 1300.5 L 835.5 1300.5 L 834.5 1301.5 L 832.5 1301.5 L 831.5 1302.5 L 829.5 1302.5 L 828.5 1303.5 L 813.5 1303.5 L 812.5 1302.5 L 809.5 1302.5 L 808.5 1301.5 L 807.5 1301.5 L 806.5 1300.5 L 805.5 1300.5 L 803.5 1298.5 L 802.5 1298.5 L 799.5 1295.5 L 799.5 1294.5 L 797.5 1292.5 L 797.5 1291.5 L 796.5 1290.5 L 796.5 1289.5 L 795.5 1288.5 L 795.5 1285.5 L 794.5 1284.5 L 794.5 1282.5 L 793.5 1281.5 L 793.5 1261.5 L 753.5 1261.5 L 752.5 1262.5 L 752.5 1267.5 L 753.5 1268.5 L 753.5 1269.5 L 752.5 1270.5 L 753.5 1271.5 L 753.5 1283.5 L 754.5 1284.5 L 754.5 1291.5 L 755.5 1292.5 L 755.5 1295.5 L 756.5 1296.5 L 756.5 1299.5 L 757.5 1300.5 L 757.5 1302.5 L 758.5 1303.5 L 758.5 1304.5 L 759.5 1305.5 L 759.5 1307.5 L 760.5 1308.5 L 760.5 1309.5 L 761.5 1310.5 L 761.5 1311.5 L 762.5 1312.5 L 762.5 1313.5 L 765.5 1316.5 L 765.5 1317.5 L 769.5 1321.5 L 769.5 1322.5 L 770.5 1323.5 L 771.5 1323.5 L 774.5 1326.5 L 775.5 1326.5 L 778.5 1329.5 L 779.5 1329.5 L 780.5 1330.5 L 781.5 1330.5 L 782.5 1331.5 L 783.5 1331.5 L 784.5 1332.5 L 786.5 1332.5 L 787.5 1333.5 L 788.5 1333.5 L 789.5 1334.5 L 792.5 1334.5 L 793.5 1335.5 L 795.5 1335.5 L 796.5 1336.5 L 802.5 1336.5 L 803.5 1337.5 L 809.5 1337.5 L 810.5 1338.5 L 828.5 1338.5 L 829.5 1337.5 L 835.5 1337.5 L 836.5 1336.5 L 841.5 1336.5 L 842.5 1335.5 L 845.5 1335.5 L 846.5 1334.5 L 849.5 1334.5 L 850.5 1333.5 L 851.5 1333.5 L 852.5 1332.5 L 854.5 1332.5 L 855.5 1331.5 L 856.5 1331.5 L 857.5 1330.5 L 858.5 1330.5 L 859.5 1329.5 L 860.5 1329.5 L 861.5 1328.5 L 862.5 1328.5 L 865.5 1325.5 L 866.5 1325.5 L 868.5 1323.5 L 869.5 1323.5 L 876.5 1316.5 L 876.5 1315.5 L 878.5 1313.5 L 878.5 1312.5 L 881.5 1309.5 L 881.5 1308.5 L 882.5 1307.5 L 882.5 1306.5 L 883.5 1305.5 L 883.5 1304.5 L 884.5 1303.5 L 884.5 1302.5 L 885.5 1301.5 L 885.5 1299.5 L 886.5 1298.5 L 886.5 1296.5 L 887.5 1295.5 L 887.5 1292.5 L 888.5 1291.5 L 888.5 1289.5 L 889.5 1288.5 L 889.5 1282.5 L 890.5 1281.5 L 890.5 1276.5 L 891.5 1275.5 L 891.5 1257.5 L 890.5 1256.5 L 890.5 1253.5 L 889.5 1252.5 L 889.5 1248.5 L 888.5 1247.5 L 888.5 1246.5 L 887.5 1245.5 L 887.5 1243.5 L 886.5 1242.5 L 886.5 1241.5 L 885.5 1240.5 L 885.5 1238.5 L 883.5 1236.5 L 883.5 1235.5 L 882.5 1234.5 L 882.5 1233.5 L 880.5 1231.5 L 880.5 1230.5 L 876.5 1226.5 L 876.5 1225.5 L 865.5 1214.5 L 864.5 1214.5 L 862.5 1212.5 L 861.5 1212.5 L 856.5 1207.5 L 855.5 1207.5 L 853.5 1205.5 L 852.5 1205.5 L 849.5 1202.5 L 848.5 1202.5 L 847.5 1201.5 L 846.5 1201.5 L 843.5 1198.5 L 842.5 1198.5 L 841.5 1197.5 L 840.5 1197.5 L 837.5 1194.5 L 836.5 1194.5 L 835.5 1193.5 L 834.5 1193.5 L 831.5 1190.5 L 830.5 1190.5 L 828.5 1188.5 L 827.5 1188.5 L 825.5 1186.5 L 824.5 1186.5 L 822.5 1184.5 L 821.5 1184.5 L 813.5 1176.5 L 812.5 1176.5 L 810.5 1174.5 L 810.5 1173.5 L 804.5 1167.5 L 804.5 1166.5 L 803.5 1165.5 L 803.5 1164.5 L 801.5 1162.5 L 801.5 1160.5 L 800.5 1159.5 L 800.5 1158.5 L 799.5 1157.5 L 799.5 1155.5 L 798.5 1154.5 L 798.5 1151.5 L 797.5 1150.5 L 797.5 1146.5 L 798.5 1145.5 L 798.5 1142.5 L 799.5 1141.5 L 799.5 1138.5 L 800.5 1137.5 L 800.5 1136.5 L 801.5 1135.5 L 801.5 1134.5 L 806.5 1129.5 L 807.5 1129.5 L 809.5 1127.5 L 810.5 1127.5 L 811.5 1126.5 L 813.5 1126.5 L 814.5 1125.5 L 816.5 1125.5 L 817.5 1124.5 L 825.5 1124.5 L 826.5 1125.5 L 828.5 1125.5 L 829.5 1126.5 L 831.5 1126.5 L 832.5 1127.5 L 833.5 1127.5 L 834.5 1128.5 L 835.5 1128.5 L 840.5 1133.5 L 840.5 1134.5 L 841.5 1135.5 L 841.5 1136.5 L 843.5 1138.5 L 843.5 1140.5 L 844.5 1141.5 L 844.5 1144.5 L 845.5 1145.5 L 845.5 1147.5 L 846.5 1148.5 L 846.5 1156.5 L 847.5 1157.5 L 847.5 1165.5 L 887.5 1165.5 L 887.5 1149.5 L 886.5 1148.5 L 886.5 1142.5 L 885.5 1141.5 L 885.5 1135.5 L 884.5 1134.5 L 884.5 1131.5 L 883.5 1130.5 L 883.5 1127.5 L 882.5 1126.5 L 882.5 1125.5 L 881.5 1124.5 L 881.5 1122.5 L 880.5 1121.5 L 880.5 1119.5 L 878.5 1117.5 L 878.5 1116.5 L 877.5 1115.5 L 877.5 1114.5 L 876.5 1113.5 L 876.5 1112.5 L 873.5 1109.5 L 873.5 1108.5 L 869.5 1104.5 L 868.5 1104.5 L 865.5 1101.5 L 864.5 1101.5 L 862.5 1099.5 L 861.5 1099.5 L 860.5 1098.5 L 859.5 1098.5 L 858.5 1097.5 L 856.5 1097.5 L 855.5 1096.5 L 854.5 1096.5 L 853.5 1095.5 L 851.5 1095.5 L 850.5 1094.5 L 848.5 1094.5 L 847.5 1093.5 L 843.5 1093.5 L 842.5 1092.5 L 839.5 1092.5 L 838.5 1091.5 L 825.5 1091.5 L 824.5 1090.5 Z M 451.5 1090.5 L 450.5 1091.5 L 438.5 1091.5 L 437.5 1092.5 L 435.5 1092.5 L 434.5 1093.5 L 429.5 1093.5 L 428.5 1094.5 L 427.5 1094.5 L 426.5 1095.5 L 423.5 1095.5 L 422.5 1096.5 L 421.5 1096.5 L 420.5 1097.5 L 419.5 1097.5 L 418.5 1098.5 L 417.5 1098.5 L 415.5 1100.5 L 414.5 1100.5 L 412.5 1102.5 L 411.5 1102.5 L 408.5 1105.5 L 407.5 1105.5 L 404.5 1108.5 L 404.5 1109.5 L 401.5 1112.5 L 401.5 1113.5 L 398.5 1116.5 L 398.5 1117.5 L 397.5 1118.5 L 397.5 1119.5 L 396.5 1120.5 L 396.5 1121.5 L 395.5 1122.5 L 395.5 1123.5 L 394.5 1124.5 L 394.5 1126.5 L 393.5 1127.5 L 393.5 1129.5 L 392.5 1130.5 L 392.5 1133.5 L 391.5 1134.5 L 391.5 1136.5 L 390.5 1137.5 L 390.5 1142.5 L 389.5 1143.5 L 389.5 1161.5 L 390.5 1162.5 L 390.5 1168.5 L 391.5 1169.5 L 391.5 1171.5 L 392.5 1172.5 L 392.5 1175.5 L 393.5 1176.5 L 393.5 1177.5 L 394.5 1178.5 L 394.5 1181.5 L 395.5 1182.5 L 395.5 1183.5 L 396.5 1184.5 L 396.5 1185.5 L 397.5 1186.5 L 397.5 1187.5 L 398.5 1188.5 L 398.5 1189.5 L 400.5 1191.5 L 400.5 1192.5 L 401.5 1193.5 L 401.5 1194.5 L 404.5 1197.5 L 404.5 1198.5 L 408.5 1202.5 L 408.5 1203.5 L 414.5 1209.5 L 415.5 1209.5 L 418.5 1212.5 L 419.5 1212.5 L 422.5 1215.5 L 423.5 1215.5 L 426.5 1218.5 L 427.5 1218.5 L 429.5 1220.5 L 430.5 1220.5 L 431.5 1221.5 L 432.5 1221.5 L 434.5 1223.5 L 435.5 1223.5 L 437.5 1225.5 L 438.5 1225.5 L 440.5 1227.5 L 441.5 1227.5 L 442.5 1228.5 L 443.5 1228.5 L 446.5 1231.5 L 447.5 1231.5 L 448.5 1232.5 L 449.5 1232.5 L 452.5 1235.5 L 453.5 1235.5 L 455.5 1237.5 L 456.5 1237.5 L 460.5 1241.5 L 461.5 1241.5 L 463.5 1243.5 L 464.5 1243.5 L 473.5 1252.5 L 473.5 1253.5 L 475.5 1255.5 L 475.5 1256.5 L 477.5 1258.5 L 477.5 1259.5 L 478.5 1260.5 L 478.5 1263.5 L 479.5 1264.5 L 479.5 1265.5 L 480.5 1266.5 L 480.5 1282.5 L 479.5 1283.5 L 479.5 1286.5 L 478.5 1287.5 L 478.5 1289.5 L 477.5 1290.5 L 477.5 1291.5 L 476.5 1292.5 L 476.5 1293.5 L 471.5 1298.5 L 470.5 1298.5 L 468.5 1300.5 L 467.5 1300.5 L 466.5 1301.5 L 465.5 1301.5 L 464.5 1302.5 L 461.5 1302.5 L 460.5 1303.5 L 445.5 1303.5 L 444.5 1302.5 L 442.5 1302.5 L 441.5 1301.5 L 439.5 1301.5 L 438.5 1300.5 L 437.5 1300.5 L 435.5 1298.5 L 434.5 1298.5 L 432.5 1296.5 L 432.5 1295.5 L 429.5 1292.5 L 429.5 1291.5 L 428.5 1290.5 L 428.5 1289.5 L 427.5 1288.5 L 427.5 1284.5 L 426.5 1283.5 L 426.5 1281.5 L 425.5 1280.5 L 425.5 1261.5 L 384.5 1261.5 L 384.5 1280.5 L 385.5 1281.5 L 385.5 1287.5 L 386.5 1288.5 L 386.5 1293.5 L 387.5 1294.5 L 387.5 1296.5 L 388.5 1297.5 L 388.5 1300.5 L 389.5 1301.5 L 389.5 1303.5 L 390.5 1304.5 L 390.5 1305.5 L 391.5 1306.5 L 391.5 1308.5 L 392.5 1309.5 L 392.5 1310.5 L 393.5 1311.5 L 393.5 1312.5 L 395.5 1314.5 L 395.5 1315.5 L 397.5 1317.5 L 397.5 1318.5 L 404.5 1325.5 L 405.5 1325.5 L 407.5 1327.5 L 408.5 1327.5 L 410.5 1329.5 L 411.5 1329.5 L 412.5 1330.5 L 413.5 1330.5 L 414.5 1331.5 L 415.5 1331.5 L 416.5 1332.5 L 417.5 1332.5 L 418.5 1333.5 L 420.5 1333.5 L 421.5 1334.5 L 424.5 1334.5 L 425.5 1335.5 L 427.5 1335.5 L 428.5 1336.5 L 433.5 1336.5 L 434.5 1337.5 L 440.5 1337.5 L 441.5 1338.5 L 460.5 1338.5 L 461.5 1337.5 L 468.5 1337.5 L 469.5 1336.5 L 474.5 1336.5 L 475.5 1335.5 L 477.5 1335.5 L 478.5 1334.5 L 482.5 1334.5 L 483.5 1333.5 L 484.5 1333.5 L 485.5 1332.5 L 487.5 1332.5 L 488.5 1331.5 L 489.5 1331.5 L 490.5 1330.5 L 491.5 1330.5 L 492.5 1329.5 L 493.5 1329.5 L 495.5 1327.5 L 496.5 1327.5 L 498.5 1325.5 L 499.5 1325.5 L 511.5 1313.5 L 511.5 1312.5 L 512.5 1311.5 L 512.5 1310.5 L 514.5 1308.5 L 514.5 1307.5 L 515.5 1306.5 L 515.5 1305.5 L 516.5 1304.5 L 516.5 1303.5 L 517.5 1302.5 L 517.5 1300.5 L 518.5 1299.5 L 518.5 1298.5 L 519.5 1297.5 L 519.5 1294.5 L 520.5 1293.5 L 520.5 1291.5 L 521.5 1290.5 L 521.5 1286.5 L 522.5 1285.5 L 522.5 1280.5 L 523.5 1279.5 L 523.5 1255.5 L 522.5 1254.5 L 522.5 1252.5 L 521.5 1251.5 L 521.5 1247.5 L 520.5 1246.5 L 520.5 1245.5 L 519.5 1244.5 L 519.5 1242.5 L 518.5 1241.5 L 518.5 1240.5 L 517.5 1239.5 L 517.5 1238.5 L 516.5 1237.5 L 516.5 1236.5 L 515.5 1235.5 L 515.5 1234.5 L 513.5 1232.5 L 513.5 1231.5 L 512.5 1230.5 L 512.5 1229.5 L 506.5 1223.5 L 506.5 1222.5 L 500.5 1216.5 L 499.5 1216.5 L 493.5 1210.5 L 492.5 1210.5 L 490.5 1208.5 L 489.5 1208.5 L 485.5 1204.5 L 484.5 1204.5 L 482.5 1202.5 L 481.5 1202.5 L 478.5 1199.5 L 477.5 1199.5 L 476.5 1198.5 L 475.5 1198.5 L 472.5 1195.5 L 471.5 1195.5 L 469.5 1193.5 L 468.5 1193.5 L 466.5 1191.5 L 465.5 1191.5 L 463.5 1189.5 L 462.5 1189.5 L 459.5 1186.5 L 458.5 1186.5 L 457.5 1185.5 L 456.5 1185.5 L 451.5 1180.5 L 450.5 1180.5 L 438.5 1168.5 L 438.5 1167.5 L 436.5 1165.5 L 436.5 1164.5 L 435.5 1163.5 L 435.5 1162.5 L 434.5 1161.5 L 434.5 1160.5 L 433.5 1159.5 L 433.5 1158.5 L 432.5 1157.5 L 432.5 1155.5 L 431.5 1154.5 L 431.5 1141.5 L 432.5 1140.5 L 432.5 1139.5 L 433.5 1138.5 L 433.5 1137.5 L 434.5 1136.5 L 434.5 1135.5 L 435.5 1134.5 L 435.5 1133.5 L 440.5 1128.5 L 441.5 1128.5 L 442.5 1127.5 L 443.5 1127.5 L 444.5 1126.5 L 446.5 1126.5 L 447.5 1125.5 L 450.5 1125.5 L 451.5 1124.5 L 457.5 1124.5 L 458.5 1125.5 L 461.5 1125.5 L 462.5 1126.5 L 464.5 1126.5 L 465.5 1127.5 L 466.5 1127.5 L 474.5 1135.5 L 474.5 1136.5 L 475.5 1137.5 L 475.5 1138.5 L 476.5 1139.5 L 476.5 1142.5 L 477.5 1143.5 L 477.5 1144.5 L 478.5 1145.5 L 478.5 1151.5 L 479.5 1152.5 L 479.5 1160.5 L 480.5 1161.5 L 480.5 1163.5 L 479.5 1164.5 L 480.5 1165.5 L 519.5 1165.5 L 519.5 1148.5 L 518.5 1147.5 L 518.5 1141.5 L 517.5 1140.5 L 517.5 1135.5 L 516.5 1134.5 L 516.5 1131.5 L 515.5 1130.5 L 515.5 1127.5 L 514.5 1126.5 L 514.5 1124.5 L 513.5 1123.5 L 513.5 1121.5 L 512.5 1120.5 L 512.5 1119.5 L 511.5 1118.5 L 511.5 1117.5 L 510.5 1116.5 L 510.5 1115.5 L 508.5 1113.5 L 508.5 1112.5 L 506.5 1110.5 L 506.5 1109.5 L 499.5 1102.5 L 498.5 1102.5 L 497.5 1101.5 L 496.5 1101.5 L 494.5 1099.5 L 493.5 1099.5 L 492.5 1098.5 L 491.5 1098.5 L 490.5 1097.5 L 489.5 1097.5 L 488.5 1096.5 L 486.5 1096.5 L 485.5 1095.5 L 483.5 1095.5 L 482.5 1094.5 L 480.5 1094.5 L 479.5 1093.5 L 475.5 1093.5 L 474.5 1092.5 L 472.5 1092.5 L 471.5 1091.5 L 458.5 1091.5 L 457.5 1090.5 Z M 1617.5 714.5 L 1616.5 715.5 L 1616.5 716.5 L 1617.5 717.5 L 1617.5 735.5 L 1616.5 736.5 L 1616.5 739.5 L 1617.5 740.5 L 1617.5 743.5 L 1616.5 744.5 L 1617.5 745.5 L 1617.5 769.5 L 1616.5 770.5 L 1616.5 771.5 L 1617.5 772.5 L 1617.5 842.5 L 1616.5 843.5 L 1617.5 844.5 L 1617.5 845.5 L 1616.5 846.5 L 1616.5 847.5 L 1617.5 848.5 L 1617.5 853.5 L 1616.5 854.5 L 1616.5 855.5 L 1617.5 856.5 L 1617.5 861.5 L 1616.5 862.5 L 1616.5 865.5 L 1617.5 866.5 L 1617.5 867.5 L 1616.5 868.5 L 1616.5 869.5 L 1617.5 870.5 L 1617.5 876.5 L 1616.5 877.5 L 1617.5 878.5 L 1617.5 879.5 L 1616.5 880.5 L 1616.5 883.5 L 1617.5 884.5 L 1617.5 950.5 L 1616.5 951.5 L 1616.5 952.5 L 1655.5 952.5 L 1654.5 951.5 L 1654.5 796.5 L 1655.5 795.5 L 1656.5 795.5 L 1657.5 796.5 L 1657.5 797.5 L 1659.5 799.5 L 1659.5 801.5 L 1660.5 802.5 L 1660.5 804.5 L 1661.5 805.5 L 1661.5 807.5 L 1662.5 808.5 L 1662.5 809.5 L 1663.5 810.5 L 1663.5 812.5 L 1664.5 813.5 L 1664.5 815.5 L 1665.5 816.5 L 1665.5 818.5 L 1666.5 819.5 L 1666.5 821.5 L 1667.5 822.5 L 1667.5 823.5 L 1668.5 824.5 L 1668.5 826.5 L 1669.5 827.5 L 1669.5 828.5 L 1670.5 829.5 L 1670.5 832.5 L 1671.5 833.5 L 1671.5 834.5 L 1672.5 835.5 L 1672.5 837.5 L 1673.5 838.5 L 1673.5 840.5 L 1674.5 841.5 L 1674.5 843.5 L 1675.5 844.5 L 1675.5 845.5 L 1676.5 846.5 L 1676.5 848.5 L 1677.5 849.5 L 1677.5 851.5 L 1678.5 852.5 L 1678.5 854.5 L 1679.5 855.5 L 1679.5 856.5 L 1680.5 857.5 L 1680.5 860.5 L 1681.5 861.5 L 1681.5 862.5 L 1682.5 863.5 L 1682.5 865.5 L 1683.5 866.5 L 1683.5 868.5 L 1684.5 869.5 L 1684.5 871.5 L 1685.5 872.5 L 1685.5 873.5 L 1686.5 874.5 L 1686.5 877.5 L 1687.5 878.5 L 1687.5 879.5 L 1688.5 880.5 L 1688.5 882.5 L 1689.5 883.5 L 1689.5 885.5 L 1690.5 886.5 L 1690.5 888.5 L 1691.5 889.5 L 1691.5 890.5 L 1692.5 891.5 L 1692.5 893.5 L 1693.5 894.5 L 1693.5 896.5 L 1694.5 897.5 L 1694.5 899.5 L 1695.5 900.5 L 1695.5 901.5 L 1696.5 902.5 L 1696.5 905.5 L 1697.5 906.5 L 1697.5 907.5 L 1698.5 908.5 L 1698.5 910.5 L 1699.5 911.5 L 1699.5 913.5 L 1700.5 914.5 L 1700.5 916.5 L 1701.5 917.5 L 1701.5 918.5 L 1702.5 919.5 L 1702.5 921.5 L 1703.5 922.5 L 1703.5 924.5 L 1704.5 925.5 L 1704.5 927.5 L 1705.5 928.5 L 1705.5 930.5 L 1706.5 931.5 L 1706.5 933.5 L 1707.5 934.5 L 1707.5 935.5 L 1708.5 936.5 L 1708.5 938.5 L 1709.5 939.5 L 1709.5 941.5 L 1710.5 942.5 L 1710.5 944.5 L 1711.5 945.5 L 1711.5 946.5 L 1712.5 947.5 L 1712.5 950.5 L 1713.5 951.5 L 1713.5 952.5 L 1755.5 952.5 L 1755.5 714.5 L 1718.5 714.5 L 1717.5 715.5 L 1717.5 851.5 L 1718.5 852.5 L 1718.5 858.5 L 1717.5 859.5 L 1717.5 860.5 L 1716.5 861.5 L 1715.5 861.5 L 1714.5 860.5 L 1714.5 858.5 L 1713.5 857.5 L 1713.5 856.5 L 1712.5 855.5 L 1712.5 853.5 L 1711.5 852.5 L 1711.5 849.5 L 1710.5 848.5 L 1710.5 847.5 L 1709.5 846.5 L 1709.5 843.5 L 1708.5 842.5 L 1708.5 841.5 L 1707.5 840.5 L 1707.5 838.5 L 1706.5 837.5 L 1706.5 836.5 L 1705.5 835.5 L 1705.5 832.5 L 1704.5 831.5 L 1704.5 830.5 L 1703.5 829.5 L 1703.5 827.5 L 1702.5 826.5 L 1702.5 824.5 L 1701.5 823.5 L 1701.5 821.5 L 1700.5 820.5 L 1700.5 819.5 L 1699.5 818.5 L 1699.5 815.5 L 1698.5 814.5 L 1698.5 813.5 L 1697.5 812.5 L 1697.5 810.5 L 1696.5 809.5 L 1696.5 807.5 L 1695.5 806.5 L 1695.5 804.5 L 1694.5 803.5 L 1694.5 802.5 L 1693.5 801.5 L 1693.5 798.5 L 1692.5 797.5 L 1692.5 796.5 L 1691.5 795.5 L 1691.5 793.5 L 1690.5 792.5 L 1690.5 790.5 L 1689.5 789.5 L 1689.5 787.5 L 1688.5 786.5 L 1688.5 784.5 L 1687.5 783.5 L 1687.5 781.5 L 1686.5 780.5 L 1686.5 779.5 L 1685.5 778.5 L 1685.5 776.5 L 1684.5 775.5 L 1684.5 773.5 L 1683.5 772.5 L 1683.5 770.5 L 1682.5 769.5 L 1682.5 767.5 L 1681.5 766.5 L 1681.5 764.5 L 1680.5 763.5 L 1680.5 762.5 L 1679.5 761.5 L 1679.5 758.5 L 1678.5 757.5 L 1678.5 756.5 L 1677.5 755.5 L 1677.5 753.5 L 1676.5 752.5 L 1676.5 750.5 L 1675.5 749.5 L 1675.5 747.5 L 1674.5 746.5 L 1674.5 745.5 L 1673.5 744.5 L 1673.5 742.5 L 1672.5 741.5 L 1672.5 739.5 L 1671.5 738.5 L 1671.5 736.5 L 1670.5 735.5 L 1670.5 733.5 L 1669.5 732.5 L 1669.5 730.5 L 1668.5 729.5 L 1668.5 728.5 L 1667.5 727.5 L 1667.5 724.5 L 1666.5 723.5 L 1666.5 722.5 L 1665.5 721.5 L 1665.5 719.5 L 1664.5 718.5 L 1664.5 716.5 L 1663.5 715.5 L 1663.5 714.5 Z M 1528.5 714.5 L 1528.5 952.5 L 1570.5 952.5 L 1570.5 715.5 L 1569.5 714.5 Z M 1350.5 714.5 L 1349.5 715.5 L 1349.5 952.5 L 1390.5 952.5 L 1390.5 858.5 L 1392.5 856.5 L 1393.5 856.5 L 1394.5 855.5 L 1395.5 856.5 L 1398.5 856.5 L 1399.5 855.5 L 1412.5 855.5 L 1415.5 858.5 L 1415.5 859.5 L 1416.5 860.5 L 1416.5 863.5 L 1417.5 864.5 L 1417.5 865.5 L 1418.5 866.5 L 1418.5 869.5 L 1419.5 870.5 L 1419.5 871.5 L 1420.5 872.5 L 1420.5 875.5 L 1421.5 876.5 L 1421.5 877.5 L 1422.5 878.5 L 1422.5 881.5 L 1423.5 882.5 L 1423.5 884.5 L 1424.5 885.5 L 1424.5 887.5 L 1425.5 888.5 L 1425.5 889.5 L 1426.5 890.5 L 1426.5 893.5 L 1427.5 894.5 L 1427.5 896.5 L 1428.5 897.5 L 1428.5 899.5 L 1429.5 900.5 L 1429.5 902.5 L 1430.5 903.5 L 1430.5 906.5 L 1431.5 907.5 L 1431.5 909.5 L 1432.5 910.5 L 1432.5 912.5 L 1433.5 913.5 L 1433.5 915.5 L 1434.5 916.5 L 1434.5 919.5 L 1435.5 920.5 L 1435.5 922.5 L 1436.5 923.5 L 1436.5 925.5 L 1437.5 926.5 L 1437.5 928.5 L 1438.5 929.5 L 1438.5 932.5 L 1439.5 933.5 L 1439.5 934.5 L 1440.5 935.5 L 1440.5 938.5 L 1441.5 939.5 L 1441.5 941.5 L 1442.5 942.5 L 1442.5 945.5 L 1443.5 946.5 L 1443.5 947.5 L 1444.5 948.5 L 1444.5 951.5 L 1445.5 952.5 L 1487.5 952.5 L 1486.5 951.5 L 1486.5 949.5 L 1485.5 948.5 L 1485.5 946.5 L 1484.5 945.5 L 1484.5 943.5 L 1483.5 942.5 L 1483.5 940.5 L 1482.5 939.5 L 1482.5 937.5 L 1481.5 936.5 L 1481.5 934.5 L 1480.5 933.5 L 1480.5 931.5 L 1479.5 930.5 L 1479.5 928.5 L 1478.5 927.5 L 1478.5 925.5 L 1477.5 924.5 L 1477.5 922.5 L 1476.5 921.5 L 1476.5 919.5 L 1475.5 918.5 L 1475.5 916.5 L 1474.5 915.5 L 1474.5 913.5 L 1473.5 912.5 L 1473.5 910.5 L 1472.5 909.5 L 1472.5 907.5 L 1471.5 906.5 L 1471.5 904.5 L 1470.5 903.5 L 1470.5 901.5 L 1469.5 900.5 L 1469.5 898.5 L 1468.5 897.5 L 1468.5 895.5 L 1467.5 894.5 L 1467.5 892.5 L 1466.5 891.5 L 1466.5 889.5 L 1465.5 888.5 L 1465.5 886.5 L 1464.5 885.5 L 1464.5 883.5 L 1463.5 882.5 L 1463.5 880.5 L 1462.5 879.5 L 1462.5 877.5 L 1461.5 876.5 L 1461.5 874.5 L 1460.5 873.5 L 1460.5 871.5 L 1459.5 870.5 L 1459.5 867.5 L 1458.5 866.5 L 1458.5 865.5 L 1457.5 864.5 L 1457.5 861.5 L 1456.5 860.5 L 1456.5 859.5 L 1455.5 858.5 L 1455.5 856.5 L 1454.5 855.5 L 1454.5 853.5 L 1453.5 852.5 L 1453.5 850.5 L 1452.5 849.5 L 1452.5 847.5 L 1454.5 845.5 L 1455.5 845.5 L 1456.5 844.5 L 1457.5 844.5 L 1458.5 843.5 L 1459.5 843.5 L 1465.5 837.5 L 1465.5 836.5 L 1468.5 833.5 L 1468.5 832.5 L 1470.5 830.5 L 1470.5 829.5 L 1471.5 828.5 L 1471.5 827.5 L 1472.5 826.5 L 1472.5 825.5 L 1473.5 824.5 L 1473.5 821.5 L 1474.5 820.5 L 1474.5 819.5 L 1475.5 818.5 L 1475.5 814.5 L 1476.5 813.5 L 1476.5 811.5 L 1477.5 810.5 L 1477.5 804.5 L 1478.5 803.5 L 1478.5 799.5 L 1479.5 798.5 L 1479.5 771.5 L 1478.5 770.5 L 1478.5 764.5 L 1477.5 763.5 L 1477.5 757.5 L 1476.5 756.5 L 1476.5 754.5 L 1475.5 753.5 L 1475.5 749.5 L 1474.5 748.5 L 1474.5 747.5 L 1473.5 746.5 L 1473.5 744.5 L 1472.5 743.5 L 1472.5 742.5 L 1471.5 741.5 L 1471.5 740.5 L 1470.5 739.5 L 1470.5 738.5 L 1468.5 736.5 L 1468.5 735.5 L 1460.5 727.5 L 1459.5 727.5 L 1457.5 725.5 L 1456.5 725.5 L 1455.5 724.5 L 1454.5 724.5 L 1453.5 723.5 L 1452.5 723.5 L 1451.5 722.5 L 1450.5 722.5 L 1449.5 721.5 L 1447.5 721.5 L 1446.5 720.5 L 1445.5 720.5 L 1444.5 719.5 L 1441.5 719.5 L 1440.5 718.5 L 1439.5 718.5 L 1438.5 717.5 L 1432.5 717.5 L 1431.5 716.5 L 1427.5 716.5 L 1426.5 715.5 L 1414.5 715.5 L 1413.5 714.5 Z M 1390.5 752.5 L 1391.5 751.5 L 1416.5 751.5 L 1417.5 752.5 L 1421.5 752.5 L 1422.5 753.5 L 1423.5 753.5 L 1424.5 754.5 L 1425.5 754.5 L 1433.5 762.5 L 1433.5 763.5 L 1434.5 764.5 L 1434.5 765.5 L 1435.5 766.5 L 1435.5 767.5 L 1436.5 768.5 L 1436.5 771.5 L 1437.5 772.5 L 1437.5 775.5 L 1438.5 776.5 L 1438.5 798.5 L 1437.5 799.5 L 1437.5 801.5 L 1436.5 802.5 L 1436.5 805.5 L 1435.5 806.5 L 1435.5 807.5 L 1434.5 808.5 L 1434.5 809.5 L 1433.5 810.5 L 1433.5 811.5 L 1425.5 819.5 L 1424.5 819.5 L 1423.5 820.5 L 1422.5 820.5 L 1421.5 821.5 L 1419.5 821.5 L 1418.5 822.5 L 1416.5 822.5 L 1415.5 823.5 L 1393.5 823.5 L 1392.5 822.5 L 1391.5 822.5 L 1390.5 821.5 Z M 1197.5 714.5 L 1196.5 715.5 L 1196.5 952.5 L 1305.5 952.5 L 1305.5 950.5 L 1304.5 949.5 L 1304.5 934.5 L 1305.5 933.5 L 1304.5 932.5 L 1304.5 919.5 L 1305.5 918.5 L 1305.5 916.5 L 1304.5 916.5 L 1303.5 915.5 L 1302.5 916.5 L 1240.5 916.5 L 1238.5 914.5 L 1238.5 913.5 L 1237.5 912.5 L 1238.5 911.5 L 1238.5 908.5 L 1237.5 907.5 L 1237.5 906.5 L 1238.5 905.5 L 1238.5 855.5 L 1237.5 854.5 L 1237.5 853.5 L 1240.5 850.5 L 1296.5 850.5 L 1296.5 817.5 L 1295.5 816.5 L 1295.5 815.5 L 1296.5 814.5 L 1296.5 813.5 L 1295.5 812.5 L 1295.5 811.5 L 1290.5 811.5 L 1289.5 812.5 L 1287.5 812.5 L 1286.5 811.5 L 1285.5 811.5 L 1284.5 812.5 L 1240.5 812.5 L 1238.5 810.5 L 1238.5 809.5 L 1237.5 808.5 L 1238.5 807.5 L 1238.5 756.5 L 1237.5 755.5 L 1238.5 754.5 L 1238.5 753.5 L 1239.5 752.5 L 1240.5 752.5 L 1241.5 751.5 L 1243.5 751.5 L 1244.5 752.5 L 1304.5 752.5 L 1305.5 751.5 L 1305.5 715.5 L 1304.5 714.5 Z M 1010.5 714.5 L 1009.5 715.5 L 1009.5 716.5 L 1010.5 717.5 L 1010.5 722.5 L 1011.5 723.5 L 1011.5 725.5 L 1012.5 726.5 L 1012.5 731.5 L 1013.5 732.5 L 1013.5 735.5 L 1014.5 736.5 L 1014.5 741.5 L 1015.5 742.5 L 1015.5 745.5 L 1016.5 746.5 L 1016.5 750.5 L 1017.5 751.5 L 1017.5 754.5 L 1018.5 755.5 L 1018.5 761.5 L 1019.5 762.5 L 1019.5 764.5 L 1020.5 765.5 L 1020.5 769.5 L 1021.5 770.5 L 1021.5 774.5 L 1022.5 775.5 L 1022.5 779.5 L 1023.5 780.5 L 1023.5 783.5 L 1024.5 784.5 L 1024.5 789.5 L 1025.5 790.5 L 1025.5 793.5 L 1026.5 794.5 L 1026.5 799.5 L 1027.5 800.5 L 1027.5 802.5 L 1028.5 803.5 L 1028.5 808.5 L 1029.5 809.5 L 1029.5 813.5 L 1030.5 814.5 L 1030.5 818.5 L 1031.5 819.5 L 1031.5 822.5 L 1032.5 823.5 L 1032.5 828.5 L 1033.5 829.5 L 1033.5 832.5 L 1034.5 833.5 L 1034.5 838.5 L 1035.5 839.5 L 1035.5 842.5 L 1036.5 843.5 L 1036.5 847.5 L 1037.5 848.5 L 1037.5 851.5 L 1038.5 852.5 L 1038.5 857.5 L 1039.5 858.5 L 1039.5 861.5 L 1040.5 862.5 L 1040.5 867.5 L 1041.5 868.5 L 1041.5 871.5 L 1042.5 872.5 L 1042.5 876.5 L 1043.5 877.5 L 1043.5 880.5 L 1044.5 881.5 L 1044.5 886.5 L 1045.5 887.5 L 1045.5 890.5 L 1046.5 891.5 L 1046.5 895.5 L 1047.5 896.5 L 1047.5 899.5 L 1048.5 900.5 L 1048.5 906.5 L 1049.5 907.5 L 1049.5 909.5 L 1050.5 910.5 L 1050.5 915.5 L 1051.5 916.5 L 1051.5 919.5 L 1052.5 920.5 L 1052.5 924.5 L 1053.5 925.5 L 1053.5 928.5 L 1054.5 929.5 L 1054.5 934.5 L 1055.5 935.5 L 1055.5 938.5 L 1056.5 939.5 L 1056.5 944.5 L 1057.5 945.5 L 1057.5 948.5 L 1058.5 949.5 L 1058.5 952.5 L 1112.5 952.5 L 1112.5 950.5 L 1113.5 949.5 L 1113.5 944.5 L 1114.5 943.5 L 1114.5 940.5 L 1115.5 939.5 L 1115.5 934.5 L 1116.5 933.5 L 1116.5 930.5 L 1117.5 929.5 L 1117.5 924.5 L 1118.5 923.5 L 1118.5 920.5 L 1119.5 919.5 L 1119.5 914.5 L 1120.5 913.5 L 1120.5 910.5 L 1121.5 909.5 L 1121.5 904.5 L 1122.5 903.5 L 1122.5 900.5 L 1123.5 899.5 L 1123.5 894.5 L 1124.5 893.5 L 1124.5 891.5 L 1125.5 890.5 L 1125.5 885.5 L 1126.5 884.5 L 1126.5 881.5 L 1127.5 880.5 L 1127.5 875.5 L 1128.5 874.5 L 1128.5 871.5 L 1129.5 870.5 L 1129.5 866.5 L 1130.5 865.5 L 1130.5 862.5 L 1131.5 861.5 L 1131.5 856.5 L 1132.5 855.5 L 1132.5 852.5 L 1133.5 851.5 L 1133.5 846.5 L 1134.5 845.5 L 1134.5 842.5 L 1135.5 841.5 L 1135.5 836.5 L 1136.5 835.5 L 1136.5 832.5 L 1137.5 831.5 L 1137.5 827.5 L 1138.5 826.5 L 1138.5 823.5 L 1139.5 822.5 L 1139.5 817.5 L 1140.5 816.5 L 1140.5 813.5 L 1141.5 812.5 L 1141.5 807.5 L 1142.5 806.5 L 1142.5 803.5 L 1143.5 802.5 L 1143.5 798.5 L 1144.5 797.5 L 1144.5 794.5 L 1145.5 793.5 L 1145.5 789.5 L 1146.5 788.5 L 1146.5 785.5 L 1147.5 784.5 L 1147.5 779.5 L 1148.5 778.5 L 1148.5 775.5 L 1149.5 774.5 L 1149.5 769.5 L 1150.5 768.5 L 1150.5 765.5 L 1151.5 764.5 L 1151.5 759.5 L 1152.5 758.5 L 1152.5 754.5 L 1153.5 753.5 L 1153.5 748.5 L 1154.5 747.5 L 1154.5 744.5 L 1155.5 743.5 L 1155.5 738.5 L 1156.5 737.5 L 1156.5 734.5 L 1157.5 733.5 L 1157.5 728.5 L 1158.5 727.5 L 1158.5 724.5 L 1159.5 723.5 L 1159.5 718.5 L 1160.5 717.5 L 1160.5 715.5 L 1159.5 714.5 L 1118.5 714.5 L 1117.5 715.5 L 1117.5 716.5 L 1116.5 717.5 L 1116.5 723.5 L 1115.5 724.5 L 1115.5 728.5 L 1114.5 729.5 L 1114.5 736.5 L 1113.5 737.5 L 1113.5 741.5 L 1112.5 742.5 L 1112.5 749.5 L 1111.5 750.5 L 1111.5 753.5 L 1110.5 754.5 L 1110.5 760.5 L 1109.5 761.5 L 1109.5 765.5 L 1108.5 766.5 L 1108.5 773.5 L 1107.5 774.5 L 1107.5 777.5 L 1106.5 778.5 L 1106.5 785.5 L 1105.5 786.5 L 1105.5 789.5 L 1104.5 790.5 L 1104.5 797.5 L 1103.5 798.5 L 1103.5 801.5 L 1102.5 802.5 L 1102.5 808.5 L 1101.5 809.5 L 1101.5 813.5 L 1100.5 814.5 L 1100.5 820.5 L 1099.5 821.5 L 1099.5 825.5 L 1098.5 826.5 L 1098.5 832.5 L 1097.5 833.5 L 1097.5 837.5 L 1096.5 838.5 L 1096.5 844.5 L 1095.5 845.5 L 1095.5 849.5 L 1094.5 850.5 L 1094.5 856.5 L 1093.5 857.5 L 1093.5 861.5 L 1092.5 862.5 L 1092.5 868.5 L 1091.5 869.5 L 1091.5 873.5 L 1090.5 874.5 L 1090.5 880.5 L 1089.5 881.5 L 1089.5 885.5 L 1088.5 886.5 L 1088.5 892.5 L 1087.5 893.5 L 1087.5 896.5 L 1086.5 897.5 L 1085.5 897.5 L 1084.5 896.5 L 1084.5 894.5 L 1083.5 893.5 L 1083.5 889.5 L 1082.5 888.5 L 1082.5 884.5 L 1081.5 883.5 L 1081.5 877.5 L 1080.5 876.5 L 1080.5 872.5 L 1079.5 871.5 L 1079.5 864.5 L 1078.5 863.5 L 1078.5 860.5 L 1077.5 859.5 L 1077.5 853.5 L 1076.5 852.5 L 1076.5 849.5 L 1075.5 848.5 L 1075.5 841.5 L 1074.5 840.5 L 1074.5 837.5 L 1073.5 836.5 L 1073.5 829.5 L 1072.5 828.5 L 1072.5 825.5 L 1071.5 824.5 L 1071.5 818.5 L 1070.5 817.5 L 1070.5 813.5 L 1069.5 812.5 L 1069.5 806.5 L 1068.5 805.5 L 1068.5 802.5 L 1067.5 801.5 L 1067.5 795.5 L 1066.5 794.5 L 1066.5 790.5 L 1065.5 789.5 L 1065.5 783.5 L 1064.5 782.5 L 1064.5 779.5 L 1063.5 778.5 L 1063.5 771.5 L 1062.5 770.5 L 1062.5 767.5 L 1061.5 766.5 L 1061.5 760.5 L 1060.5 759.5 L 1060.5 756.5 L 1059.5 755.5 L 1059.5 749.5 L 1058.5 748.5 L 1058.5 744.5 L 1057.5 743.5 L 1057.5 737.5 L 1056.5 736.5 L 1056.5 732.5 L 1055.5 731.5 L 1055.5 725.5 L 1054.5 724.5 L 1054.5 721.5 L 1053.5 720.5 L 1053.5 715.5 L 1052.5 714.5 Z M 846.5 714.5 L 846.5 899.5 L 847.5 900.5 L 847.5 906.5 L 848.5 907.5 L 848.5 914.5 L 849.5 915.5 L 849.5 917.5 L 850.5 918.5 L 850.5 921.5 L 851.5 922.5 L 851.5 924.5 L 852.5 925.5 L 852.5 927.5 L 853.5 928.5 L 853.5 929.5 L 854.5 930.5 L 854.5 931.5 L 855.5 932.5 L 855.5 933.5 L 856.5 934.5 L 856.5 935.5 L 858.5 937.5 L 858.5 938.5 L 863.5 943.5 L 864.5 943.5 L 867.5 946.5 L 868.5 946.5 L 869.5 947.5 L 870.5 947.5 L 872.5 949.5 L 873.5 949.5 L 874.5 950.5 L 876.5 950.5 L 877.5 951.5 L 878.5 951.5 L 879.5 952.5 L 882.5 952.5 L 883.5 953.5 L 885.5 953.5 L 886.5 954.5 L 891.5 954.5 L 892.5 955.5 L 897.5 955.5 L 898.5 956.5 L 927.5 956.5 L 928.5 955.5 L 932.5 955.5 L 933.5 954.5 L 937.5 954.5 L 938.5 953.5 L 940.5 953.5 L 941.5 952.5 L 943.5 952.5 L 944.5 951.5 L 946.5 951.5 L 947.5 950.5 L 948.5 950.5 L 949.5 949.5 L 950.5 949.5 L 951.5 948.5 L 952.5 948.5 L 953.5 947.5 L 954.5 947.5 L 956.5 945.5 L 957.5 945.5 L 964.5 938.5 L 964.5 937.5 L 965.5 936.5 L 965.5 935.5 L 967.5 933.5 L 967.5 932.5 L 968.5 931.5 L 968.5 930.5 L 969.5 929.5 L 969.5 928.5 L 970.5 927.5 L 970.5 926.5 L 971.5 925.5 L 971.5 922.5 L 972.5 921.5 L 972.5 919.5 L 973.5 918.5 L 973.5 912.5 L 974.5 911.5 L 974.5 906.5 L 975.5 905.5 L 975.5 714.5 L 936.5 714.5 L 936.5 897.5 L 935.5 898.5 L 935.5 902.5 L 934.5 903.5 L 934.5 906.5 L 933.5 907.5 L 933.5 909.5 L 926.5 916.5 L 925.5 916.5 L 924.5 917.5 L 922.5 917.5 L 921.5 918.5 L 917.5 918.5 L 916.5 919.5 L 909.5 919.5 L 908.5 918.5 L 904.5 918.5 L 903.5 917.5 L 901.5 917.5 L 900.5 916.5 L 899.5 916.5 L 891.5 908.5 L 891.5 906.5 L 890.5 905.5 L 890.5 904.5 L 889.5 903.5 L 889.5 900.5 L 888.5 899.5 L 888.5 894.5 L 887.5 893.5 L 887.5 714.5 Z M 696.5 714.5 L 695.5 715.5 L 695.5 952.5 L 803.5 952.5 L 803.5 916.5 L 802.5 916.5 L 801.5 915.5 L 800.5 916.5 L 739.5 916.5 L 736.5 913.5 L 736.5 852.5 L 737.5 851.5 L 738.5 851.5 L 739.5 850.5 L 794.5 850.5 L 794.5 812.5 L 793.5 811.5 L 792.5 811.5 L 791.5 812.5 L 782.5 812.5 L 781.5 811.5 L 751.5 811.5 L 750.5 812.5 L 747.5 812.5 L 746.5 811.5 L 745.5 811.5 L 744.5 812.5 L 743.5 812.5 L 742.5 811.5 L 741.5 812.5 L 739.5 812.5 L 736.5 809.5 L 736.5 754.5 L 739.5 751.5 L 740.5 751.5 L 741.5 752.5 L 802.5 752.5 L 802.5 751.5 L 803.5 750.5 L 802.5 749.5 L 802.5 717.5 L 803.5 716.5 L 803.5 715.5 L 802.5 714.5 Z M 510.5 714.5 L 510.5 952.5 L 548.5 952.5 L 548.5 810.5 L 547.5 809.5 L 547.5 798.5 L 549.5 796.5 L 550.5 796.5 L 551.5 797.5 L 551.5 798.5 L 552.5 799.5 L 552.5 801.5 L 553.5 802.5 L 553.5 803.5 L 554.5 804.5 L 554.5 807.5 L 555.5 808.5 L 555.5 810.5 L 556.5 811.5 L 556.5 813.5 L 557.5 814.5 L 557.5 815.5 L 558.5 816.5 L 558.5 819.5 L 559.5 820.5 L 559.5 821.5 L 560.5 822.5 L 560.5 824.5 L 561.5 825.5 L 561.5 826.5 L 562.5 827.5 L 562.5 829.5 L 563.5 830.5 L 563.5 832.5 L 564.5 833.5 L 564.5 835.5 L 565.5 836.5 L 565.5 837.5 L 566.5 838.5 L 566.5 841.5 L 567.5 842.5 L 567.5 843.5 L 568.5 844.5 L 568.5 846.5 L 569.5 847.5 L 569.5 849.5 L 570.5 850.5 L 570.5 852.5 L 571.5 853.5 L 571.5 854.5 L 572.5 855.5 L 572.5 857.5 L 573.5 858.5 L 573.5 860.5 L 574.5 861.5 L 574.5 863.5 L 575.5 864.5 L 575.5 865.5 L 576.5 866.5 L 576.5 869.5 L 577.5 870.5 L 577.5 871.5 L 578.5 872.5 L 578.5 875.5 L 579.5 876.5 L 579.5 877.5 L 580.5 878.5 L 580.5 880.5 L 581.5 881.5 L 581.5 882.5 L 582.5 883.5 L 582.5 886.5 L 583.5 887.5 L 583.5 888.5 L 584.5 889.5 L 584.5 891.5 L 585.5 892.5 L 585.5 894.5 L 586.5 895.5 L 586.5 897.5 L 587.5 898.5 L 587.5 899.5 L 588.5 900.5 L 588.5 903.5 L 589.5 904.5 L 589.5 905.5 L 590.5 906.5 L 590.5 908.5 L 591.5 909.5 L 591.5 910.5 L 592.5 911.5 L 592.5 914.5 L 593.5 915.5 L 593.5 916.5 L 594.5 917.5 L 594.5 919.5 L 595.5 920.5 L 595.5 922.5 L 596.5 923.5 L 596.5 925.5 L 597.5 926.5 L 597.5 928.5 L 598.5 929.5 L 598.5 931.5 L 599.5 932.5 L 599.5 933.5 L 600.5 934.5 L 600.5 936.5 L 601.5 937.5 L 601.5 939.5 L 602.5 940.5 L 602.5 942.5 L 603.5 943.5 L 603.5 944.5 L 604.5 945.5 L 604.5 947.5 L 605.5 948.5 L 605.5 950.5 L 606.5 951.5 L 606.5 952.5 L 648.5 952.5 L 648.5 715.5 L 647.5 714.5 L 610.5 714.5 L 610.5 844.5 L 611.5 845.5 L 611.5 860.5 L 610.5 861.5 L 609.5 861.5 L 608.5 860.5 L 608.5 859.5 L 607.5 858.5 L 607.5 857.5 L 606.5 856.5 L 606.5 855.5 L 605.5 854.5 L 605.5 851.5 L 604.5 850.5 L 604.5 848.5 L 603.5 847.5 L 603.5 845.5 L 602.5 844.5 L 602.5 842.5 L 601.5 841.5 L 601.5 840.5 L 600.5 839.5 L 600.5 837.5 L 599.5 836.5 L 599.5 834.5 L 598.5 833.5 L 598.5 831.5 L 597.5 830.5 L 597.5 828.5 L 596.5 827.5 L 596.5 825.5 L 595.5 824.5 L 595.5 822.5 L 594.5 821.5 L 594.5 820.5 L 593.5 819.5 L 593.5 816.5 L 592.5 815.5 L 592.5 814.5 L 591.5 813.5 L 591.5 811.5 L 590.5 810.5 L 590.5 808.5 L 589.5 807.5 L 589.5 805.5 L 588.5 804.5 L 588.5 803.5 L 587.5 802.5 L 587.5 800.5 L 586.5 799.5 L 586.5 797.5 L 585.5 796.5 L 585.5 794.5 L 584.5 793.5 L 584.5 792.5 L 583.5 791.5 L 583.5 788.5 L 582.5 787.5 L 582.5 786.5 L 581.5 785.5 L 581.5 783.5 L 580.5 782.5 L 580.5 780.5 L 579.5 779.5 L 579.5 777.5 L 578.5 776.5 L 578.5 774.5 L 577.5 773.5 L 577.5 771.5 L 576.5 770.5 L 576.5 769.5 L 575.5 768.5 L 575.5 766.5 L 574.5 765.5 L 574.5 763.5 L 573.5 762.5 L 573.5 760.5 L 572.5 759.5 L 572.5 758.5 L 571.5 757.5 L 571.5 754.5 L 570.5 753.5 L 570.5 752.5 L 569.5 751.5 L 569.5 749.5 L 568.5 748.5 L 568.5 746.5 L 567.5 745.5 L 567.5 743.5 L 566.5 742.5 L 566.5 740.5 L 565.5 739.5 L 565.5 737.5 L 564.5 736.5 L 564.5 735.5 L 563.5 734.5 L 563.5 732.5 L 562.5 731.5 L 562.5 729.5 L 561.5 728.5 L 561.5 726.5 L 560.5 725.5 L 560.5 723.5 L 559.5 722.5 L 559.5 720.5 L 558.5 719.5 L 558.5 718.5 L 557.5 717.5 L 557.5 715.5 L 556.5 714.5 Z M 372.5 714.5 L 371.5 715.5 L 371.5 718.5 L 370.5 719.5 L 370.5 725.5 L 369.5 726.5 L 369.5 728.5 L 368.5 729.5 L 368.5 734.5 L 367.5 735.5 L 367.5 738.5 L 366.5 739.5 L 366.5 744.5 L 365.5 745.5 L 365.5 748.5 L 364.5 749.5 L 364.5 754.5 L 363.5 755.5 L 363.5 757.5 L 362.5 758.5 L 362.5 764.5 L 361.5 765.5 L 361.5 768.5 L 360.5 769.5 L 360.5 774.5 L 359.5 775.5 L 359.5 778.5 L 358.5 779.5 L 358.5 784.5 L 357.5 785.5 L 357.5 788.5 L 356.5 789.5 L 356.5 794.5 L 355.5 795.5 L 355.5 797.5 L 354.5 798.5 L 354.5 803.5 L 353.5 804.5 L 353.5 807.5 L 352.5 808.5 L 352.5 813.5 L 351.5 814.5 L 351.5 817.5 L 350.5 818.5 L 350.5 823.5 L 349.5 824.5 L 349.5 826.5 L 348.5 827.5 L 348.5 832.5 L 347.5 833.5 L 347.5 836.5 L 346.5 837.5 L 346.5 842.5 L 345.5 843.5 L 345.5 845.5 L 344.5 846.5 L 344.5 851.5 L 343.5 852.5 L 343.5 856.5 L 342.5 857.5 L 342.5 861.5 L 341.5 862.5 L 341.5 865.5 L 340.5 866.5 L 340.5 871.5 L 339.5 872.5 L 339.5 875.5 L 338.5 876.5 L 338.5 880.5 L 337.5 881.5 L 337.5 884.5 L 336.5 885.5 L 336.5 890.5 L 335.5 891.5 L 335.5 894.5 L 334.5 895.5 L 334.5 900.5 L 333.5 901.5 L 333.5 903.5 L 332.5 904.5 L 332.5 910.5 L 331.5 911.5 L 331.5 913.5 L 330.5 914.5 L 330.5 919.5 L 329.5 920.5 L 329.5 923.5 L 328.5 924.5 L 328.5 929.5 L 327.5 930.5 L 327.5 932.5 L 326.5 933.5 L 326.5 938.5 L 325.5 939.5 L 325.5 942.5 L 324.5 943.5 L 324.5 948.5 L 323.5 949.5 L 323.5 951.5 L 322.5 952.5 L 362.5 952.5 L 362.5 950.5 L 363.5 949.5 L 363.5 944.5 L 364.5 943.5 L 364.5 939.5 L 365.5 938.5 L 365.5 932.5 L 366.5 931.5 L 366.5 928.5 L 367.5 927.5 L 367.5 922.5 L 368.5 921.5 L 368.5 918.5 L 369.5 917.5 L 369.5 911.5 L 370.5 910.5 L 370.5 908.5 L 371.5 907.5 L 371.5 904.5 L 372.5 903.5 L 372.5 902.5 L 373.5 901.5 L 421.5 901.5 L 423.5 903.5 L 423.5 906.5 L 424.5 907.5 L 424.5 912.5 L 425.5 913.5 L 425.5 917.5 L 426.5 918.5 L 426.5 923.5 L 427.5 924.5 L 427.5 927.5 L 428.5 928.5 L 428.5 934.5 L 429.5 935.5 L 429.5 938.5 L 430.5 939.5 L 430.5 944.5 L 431.5 945.5 L 431.5 948.5 L 432.5 949.5 L 432.5 952.5 L 473.5 952.5 L 473.5 950.5 L 472.5 949.5 L 472.5 946.5 L 471.5 945.5 L 471.5 940.5 L 470.5 939.5 L 470.5 936.5 L 469.5 935.5 L 469.5 930.5 L 468.5 929.5 L 468.5 926.5 L 467.5 925.5 L 467.5 920.5 L 466.5 919.5 L 466.5 917.5 L 465.5 916.5 L 465.5 911.5 L 464.5 910.5 L 464.5 907.5 L 463.5 906.5 L 463.5 900.5 L 462.5 899.5 L 462.5 896.5 L 461.5 895.5 L 461.5 890.5 L 460.5 889.5 L 460.5 886.5 L 459.5 885.5 L 459.5 881.5 L 458.5 880.5 L 458.5 876.5 L 457.5 875.5 L 457.5 871.5 L 456.5 870.5 L 456.5 867.5 L 455.5 866.5 L 455.5 861.5 L 454.5 860.5 L 454.5 856.5 L 453.5 855.5 L 453.5 851.5 L 452.5 850.5 L 452.5 847.5 L 451.5 846.5 L 451.5 841.5 L 450.5 840.5 L 450.5 837.5 L 449.5 836.5 L 449.5 832.5 L 448.5 831.5 L 448.5 827.5 L 447.5 826.5 L 447.5 821.5 L 446.5 820.5 L 446.5 817.5 L 445.5 816.5 L 445.5 811.5 L 444.5 810.5 L 444.5 808.5 L 443.5 807.5 L 443.5 801.5 L 442.5 800.5 L 442.5 797.5 L 441.5 796.5 L 441.5 791.5 L 440.5 790.5 L 440.5 787.5 L 439.5 786.5 L 439.5 781.5 L 438.5 780.5 L 438.5 777.5 L 437.5 776.5 L 437.5 771.5 L 436.5 770.5 L 436.5 767.5 L 435.5 766.5 L 435.5 761.5 L 434.5 760.5 L 434.5 758.5 L 433.5 757.5 L 433.5 752.5 L 432.5 751.5 L 432.5 748.5 L 431.5 747.5 L 431.5 742.5 L 430.5 741.5 L 430.5 738.5 L 429.5 737.5 L 429.5 732.5 L 428.5 731.5 L 428.5 728.5 L 427.5 727.5 L 427.5 722.5 L 426.5 721.5 L 426.5 718.5 L 425.5 717.5 L 425.5 714.5 Z M 396.5 766.5 L 397.5 765.5 L 398.5 765.5 L 399.5 766.5 L 399.5 768.5 L 400.5 769.5 L 400.5 777.5 L 401.5 778.5 L 401.5 783.5 L 402.5 784.5 L 402.5 790.5 L 403.5 791.5 L 403.5 794.5 L 404.5 795.5 L 404.5 803.5 L 405.5 804.5 L 405.5 807.5 L 406.5 808.5 L 406.5 814.5 L 407.5 815.5 L 407.5 819.5 L 408.5 820.5 L 408.5 826.5 L 409.5 827.5 L 409.5 831.5 L 410.5 832.5 L 410.5 838.5 L 411.5 839.5 L 411.5 843.5 L 412.5 844.5 L 412.5 850.5 L 413.5 851.5 L 413.5 854.5 L 414.5 855.5 L 414.5 861.5 L 415.5 862.5 L 415.5 863.5 L 414.5 864.5 L 413.5 864.5 L 412.5 865.5 L 382.5 865.5 L 379.5 862.5 L 379.5 861.5 L 380.5 860.5 L 380.5 857.5 L 381.5 856.5 L 381.5 850.5 L 382.5 849.5 L 382.5 846.5 L 383.5 845.5 L 383.5 838.5 L 384.5 837.5 L 384.5 834.5 L 385.5 833.5 L 385.5 827.5 L 386.5 826.5 L 386.5 823.5 L 387.5 822.5 L 387.5 815.5 L 388.5 814.5 L 388.5 811.5 L 389.5 810.5 L 389.5 803.5 L 390.5 802.5 L 390.5 799.5 L 391.5 798.5 L 391.5 792.5 L 392.5 791.5 L 392.5 787.5 L 393.5 786.5 L 393.5 780.5 L 394.5 779.5 L 394.5 774.5 L 395.5 773.5 L 395.5 769.5 L 396.5 768.5 Z M 110.5 714.5 L 109.5 715.5 L 109.5 952.5 L 147.5 952.5 L 147.5 785.5 L 149.5 783.5 L 151.5 785.5 L 151.5 788.5 L 152.5 789.5 L 152.5 797.5 L 153.5 798.5 L 153.5 800.5 L 154.5 801.5 L 154.5 807.5 L 155.5 808.5 L 155.5 812.5 L 156.5 813.5 L 156.5 818.5 L 157.5 819.5 L 157.5 822.5 L 158.5 823.5 L 158.5 828.5 L 159.5 829.5 L 159.5 832.5 L 160.5 833.5 L 160.5 838.5 L 161.5 839.5 L 161.5 842.5 L 162.5 843.5 L 162.5 848.5 L 163.5 849.5 L 163.5 852.5 L 164.5 853.5 L 164.5 858.5 L 165.5 859.5 L 165.5 862.5 L 166.5 863.5 L 166.5 868.5 L 167.5 869.5 L 167.5 872.5 L 168.5 873.5 L 168.5 878.5 L 169.5 879.5 L 169.5 882.5 L 170.5 883.5 L 170.5 888.5 L 171.5 889.5 L 171.5 892.5 L 172.5 893.5 L 172.5 898.5 L 173.5 899.5 L 173.5 902.5 L 174.5 903.5 L 174.5 908.5 L 175.5 909.5 L 175.5 912.5 L 176.5 913.5 L 176.5 917.5 L 177.5 918.5 L 177.5 922.5 L 178.5 923.5 L 178.5 927.5 L 179.5 928.5 L 179.5 931.5 L 180.5 932.5 L 180.5 937.5 L 181.5 938.5 L 181.5 941.5 L 182.5 942.5 L 182.5 947.5 L 183.5 948.5 L 183.5 952.5 L 213.5 952.5 L 213.5 951.5 L 214.5 950.5 L 214.5 947.5 L 215.5 946.5 L 215.5 940.5 L 216.5 939.5 L 216.5 937.5 L 217.5 936.5 L 217.5 931.5 L 218.5 930.5 L 218.5 927.5 L 219.5 926.5 L 219.5 921.5 L 220.5 920.5 L 220.5 916.5 L 221.5 915.5 L 221.5 910.5 L 222.5 909.5 L 222.5 907.5 L 223.5 906.5 L 223.5 900.5 L 224.5 899.5 L 224.5 896.5 L 225.5 895.5 L 225.5 890.5 L 226.5 889.5 L 226.5 886.5 L 227.5 885.5 L 227.5 880.5 L 228.5 879.5 L 228.5 876.5 L 229.5 875.5 L 229.5 870.5 L 230.5 869.5 L 230.5 866.5 L 231.5 865.5 L 231.5 860.5 L 232.5 859.5 L 232.5 856.5 L 233.5 855.5 L 233.5 850.5 L 234.5 849.5 L 234.5 846.5 L 235.5 845.5 L 235.5 839.5 L 236.5 838.5 L 236.5 836.5 L 237.5 835.5 L 237.5 830.5 L 238.5 829.5 L 238.5 826.5 L 239.5 825.5 L 239.5 819.5 L 240.5 818.5 L 240.5 816.5 L 241.5 815.5 L 241.5 810.5 L 242.5 809.5 L 242.5 806.5 L 243.5 805.5 L 243.5 800.5 L 244.5 799.5 L 244.5 796.5 L 245.5 795.5 L 245.5 789.5 L 246.5 788.5 L 246.5 784.5 L 247.5 783.5 L 248.5 783.5 L 249.5 784.5 L 249.5 788.5 L 250.5 789.5 L 250.5 952.5 L 287.5 952.5 L 287.5 714.5 L 232.5 714.5 L 230.5 716.5 L 230.5 721.5 L 229.5 722.5 L 229.5 725.5 L 228.5 726.5 L 228.5 730.5 L 227.5 731.5 L 227.5 734.5 L 226.5 735.5 L 226.5 739.5 L 225.5 740.5 L 225.5 743.5 L 224.5 744.5 L 224.5 750.5 L 223.5 751.5 L 223.5 753.5 L 222.5 754.5 L 222.5 759.5 L 221.5 760.5 L 221.5 763.5 L 220.5 764.5 L 220.5 769.5 L 219.5 770.5 L 219.5 772.5 L 218.5 773.5 L 218.5 778.5 L 217.5 779.5 L 217.5 781.5 L 216.5 782.5 L 216.5 787.5 L 215.5 788.5 L 215.5 791.5 L 214.5 792.5 L 214.5 797.5 L 213.5 798.5 L 213.5 801.5 L 212.5 802.5 L 212.5 807.5 L 211.5 808.5 L 211.5 810.5 L 210.5 811.5 L 210.5 816.5 L 209.5 817.5 L 209.5 820.5 L 208.5 821.5 L 208.5 826.5 L 207.5 827.5 L 207.5 830.5 L 206.5 831.5 L 206.5 836.5 L 205.5 837.5 L 205.5 840.5 L 204.5 841.5 L 204.5 846.5 L 203.5 847.5 L 203.5 851.5 L 202.5 852.5 L 202.5 857.5 L 201.5 858.5 L 201.5 861.5 L 200.5 862.5 L 199.5 862.5 L 198.5 861.5 L 198.5 858.5 L 197.5 857.5 L 197.5 853.5 L 196.5 852.5 L 196.5 847.5 L 195.5 846.5 L 195.5 841.5 L 194.5 840.5 L 194.5 837.5 L 193.5 836.5 L 193.5 831.5 L 192.5 830.5 L 192.5 827.5 L 191.5 826.5 L 191.5 820.5 L 190.5 819.5 L 190.5 816.5 L 189.5 815.5 L 189.5 811.5 L 188.5 810.5 L 188.5 807.5 L 187.5 806.5 L 187.5 801.5 L 186.5 800.5 L 186.5 797.5 L 185.5 796.5 L 185.5 792.5 L 184.5 791.5 L 184.5 788.5 L 183.5 787.5 L 183.5 782.5 L 182.5 781.5 L 182.5 778.5 L 181.5 777.5 L 181.5 773.5 L 180.5 772.5 L 180.5 769.5 L 179.5 768.5 L 179.5 763.5 L 178.5 762.5 L 178.5 760.5 L 177.5 759.5 L 177.5 754.5 L 176.5 753.5 L 176.5 750.5 L 175.5 749.5 L 175.5 745.5 L 174.5 744.5 L 174.5 741.5 L 173.5 740.5 L 173.5 735.5 L 172.5 734.5 L 172.5 731.5 L 171.5 730.5 L 171.5 726.5 L 170.5 725.5 L 170.5 722.5 L 169.5 721.5 L 169.5 716.5 L 167.5 714.5 Z M 1857.5 711.5 L 1856.5 712.5 L 1852.5 712.5 L 1851.5 713.5 L 1847.5 713.5 L 1846.5 714.5 L 1844.5 714.5 L 1843.5 715.5 L 1840.5 715.5 L 1839.5 716.5 L 1838.5 716.5 L 1837.5 717.5 L 1836.5 717.5 L 1835.5 718.5 L 1834.5 718.5 L 1833.5 719.5 L 1832.5 719.5 L 1831.5 720.5 L 1830.5 720.5 L 1827.5 723.5 L 1826.5 723.5 L 1817.5 732.5 L 1817.5 733.5 L 1814.5 736.5 L 1814.5 737.5 L 1813.5 738.5 L 1813.5 739.5 L 1811.5 741.5 L 1811.5 742.5 L 1810.5 743.5 L 1810.5 744.5 L 1809.5 745.5 L 1809.5 747.5 L 1808.5 748.5 L 1808.5 749.5 L 1807.5 750.5 L 1807.5 751.5 L 1806.5 752.5 L 1806.5 754.5 L 1805.5 755.5 L 1805.5 757.5 L 1804.5 758.5 L 1804.5 761.5 L 1803.5 762.5 L 1803.5 764.5 L 1802.5 765.5 L 1802.5 769.5 L 1801.5 770.5 L 1801.5 773.5 L 1800.5 774.5 L 1800.5 781.5 L 1799.5 782.5 L 1799.5 786.5 L 1798.5 787.5 L 1798.5 799.5 L 1797.5 800.5 L 1797.5 861.5 L 1798.5 862.5 L 1798.5 874.5 L 1799.5 875.5 L 1799.5 880.5 L 1800.5 881.5 L 1800.5 888.5 L 1801.5 889.5 L 1801.5 892.5 L 1802.5 893.5 L 1802.5 898.5 L 1803.5 899.5 L 1803.5 901.5 L 1804.5 902.5 L 1804.5 906.5 L 1805.5 907.5 L 1805.5 908.5 L 1806.5 909.5 L 1806.5 912.5 L 1807.5 913.5 L 1807.5 914.5 L 1808.5 915.5 L 1808.5 917.5 L 1809.5 918.5 L 1809.5 920.5 L 1810.5 921.5 L 1810.5 922.5 L 1811.5 923.5 L 1811.5 924.5 L 1812.5 925.5 L 1812.5 927.5 L 1814.5 929.5 L 1814.5 931.5 L 1817.5 934.5 L 1817.5 935.5 L 1818.5 936.5 L 1818.5 937.5 L 1828.5 947.5 L 1829.5 947.5 L 1830.5 948.5 L 1831.5 948.5 L 1833.5 950.5 L 1835.5 950.5 L 1836.5 951.5 L 1837.5 951.5 L 1838.5 952.5 L 1841.5 952.5 L 1842.5 953.5 L 1844.5 953.5 L 1845.5 954.5 L 1849.5 954.5 L 1850.5 955.5 L 1853.5 955.5 L 1854.5 956.5 L 1881.5 956.5 L 1882.5 955.5 L 1886.5 955.5 L 1887.5 954.5 L 1891.5 954.5 L 1892.5 953.5 L 1894.5 953.5 L 1895.5 952.5 L 1897.5 952.5 L 1898.5 951.5 L 1899.5 951.5 L 1900.5 950.5 L 1902.5 950.5 L 1903.5 949.5 L 1904.5 949.5 L 1905.5 948.5 L 1906.5 948.5 L 1908.5 946.5 L 1909.5 946.5 L 1910.5 945.5 L 1911.5 945.5 L 1915.5 941.5 L 1916.5 941.5 L 1922.5 935.5 L 1922.5 934.5 L 1926.5 930.5 L 1926.5 929.5 L 1927.5 928.5 L 1927.5 927.5 L 1928.5 926.5 L 1928.5 925.5 L 1929.5 924.5 L 1929.5 923.5 L 1930.5 922.5 L 1930.5 920.5 L 1931.5 919.5 L 1931.5 918.5 L 1932.5 917.5 L 1932.5 915.5 L 1933.5 914.5 L 1933.5 911.5 L 1934.5 910.5 L 1934.5 908.5 L 1935.5 907.5 L 1935.5 901.5 L 1936.5 900.5 L 1936.5 897.5 L 1937.5 896.5 L 1937.5 883.5 L 1938.5 882.5 L 1938.5 823.5 L 1867.5 823.5 L 1867.5 858.5 L 1894.5 858.5 L 1895.5 859.5 L 1896.5 859.5 L 1897.5 860.5 L 1897.5 882.5 L 1896.5 883.5 L 1896.5 893.5 L 1895.5 894.5 L 1895.5 897.5 L 1894.5 898.5 L 1894.5 901.5 L 1893.5 902.5 L 1893.5 903.5 L 1892.5 904.5 L 1892.5 906.5 L 1890.5 908.5 L 1890.5 909.5 L 1887.5 912.5 L 1887.5 913.5 L 1886.5 914.5 L 1885.5 914.5 L 1884.5 915.5 L 1883.5 915.5 L 1881.5 917.5 L 1879.5 917.5 L 1878.5 918.5 L 1875.5 918.5 L 1874.5 919.5 L 1864.5 919.5 L 1863.5 918.5 L 1861.5 918.5 L 1860.5 917.5 L 1859.5 917.5 L 1858.5 916.5 L 1857.5 916.5 L 1855.5 914.5 L 1854.5 914.5 L 1850.5 910.5 L 1850.5 909.5 L 1848.5 907.5 L 1848.5 906.5 L 1847.5 905.5 L 1847.5 904.5 L 1846.5 903.5 L 1846.5 901.5 L 1845.5 900.5 L 1845.5 898.5 L 1844.5 897.5 L 1844.5 895.5 L 1843.5 894.5 L 1843.5 885.5 L 1842.5 884.5 L 1842.5 878.5 L 1841.5 877.5 L 1841.5 787.5 L 1842.5 786.5 L 1842.5 780.5 L 1843.5 779.5 L 1843.5 774.5 L 1844.5 773.5 L 1844.5 771.5 L 1845.5 770.5 L 1845.5 767.5 L 1846.5 766.5 L 1846.5 765.5 L 1847.5 764.5 L 1847.5 763.5 L 1848.5 762.5 L 1848.5 760.5 L 1851.5 757.5 L 1851.5 756.5 L 1854.5 753.5 L 1855.5 753.5 L 1857.5 751.5 L 1858.5 751.5 L 1859.5 750.5 L 1860.5 750.5 L 1861.5 749.5 L 1863.5 749.5 L 1864.5 748.5 L 1876.5 748.5 L 1877.5 749.5 L 1878.5 749.5 L 1879.5 750.5 L 1881.5 750.5 L 1884.5 753.5 L 1885.5 753.5 L 1888.5 756.5 L 1888.5 757.5 L 1890.5 759.5 L 1890.5 760.5 L 1891.5 761.5 L 1891.5 762.5 L 1892.5 763.5 L 1892.5 765.5 L 1893.5 766.5 L 1893.5 767.5 L 1894.5 768.5 L 1894.5 772.5 L 1895.5 773.5 L 1895.5 778.5 L 1896.5 779.5 L 1896.5 789.5 L 1902.5 789.5 L 1903.5 788.5 L 1935.5 788.5 L 1935.5 775.5 L 1934.5 774.5 L 1934.5 768.5 L 1933.5 767.5 L 1933.5 760.5 L 1932.5 759.5 L 1932.5 756.5 L 1931.5 755.5 L 1931.5 752.5 L 1930.5 751.5 L 1930.5 749.5 L 1929.5 748.5 L 1929.5 746.5 L 1928.5 745.5 L 1928.5 744.5 L 1927.5 743.5 L 1927.5 742.5 L 1926.5 741.5 L 1926.5 740.5 L 1925.5 739.5 L 1925.5 738.5 L 1923.5 736.5 L 1923.5 735.5 L 1922.5 734.5 L 1922.5 733.5 L 1911.5 722.5 L 1910.5 722.5 L 1909.5 721.5 L 1908.5 721.5 L 1906.5 719.5 L 1905.5 719.5 L 1904.5 718.5 L 1903.5 718.5 L 1902.5 717.5 L 1900.5 717.5 L 1899.5 716.5 L 1898.5 716.5 L 1897.5 715.5 L 1895.5 715.5 L 1894.5 714.5 L 1891.5 714.5 L 1890.5 713.5 L 1886.5 713.5 L 1885.5 712.5 L 1881.5 712.5 L 1880.5 711.5 Z" />
    <path d="M 960.5 1473.5 L 960.5 1710.5 L 1064.5 1710.5 L 1064.5 1674.5 L 1002.5 1674.5 L 1000.5 1672.5 L 1000.5 1473.5 Z M 788.5 1473.5 L 788.5 1710.5 L 895.5 1710.5 L 895.5 1674.5 L 831.5 1674.5 L 830.5 1673.5 L 830.5 1672.5 L 829.5 1671.5 L 829.5 1473.5 Z M 1177.5 1468.5 L 1176.5 1469.5 L 1168.5 1469.5 L 1167.5 1470.5 L 1165.5 1470.5 L 1164.5 1471.5 L 1161.5 1471.5 L 1160.5 1472.5 L 1158.5 1472.5 L 1157.5 1473.5 L 1155.5 1473.5 L 1154.5 1474.5 L 1153.5 1474.5 L 1152.5 1475.5 L 1151.5 1475.5 L 1149.5 1477.5 L 1148.5 1477.5 L 1147.5 1478.5 L 1146.5 1478.5 L 1132.5 1492.5 L 1132.5 1493.5 L 1131.5 1494.5 L 1131.5 1495.5 L 1129.5 1497.5 L 1129.5 1498.5 L 1128.5 1499.5 L 1128.5 1500.5 L 1127.5 1501.5 L 1127.5 1502.5 L 1126.5 1503.5 L 1126.5 1504.5 L 1125.5 1505.5 L 1125.5 1507.5 L 1124.5 1508.5 L 1124.5 1509.5 L 1123.5 1510.5 L 1123.5 1512.5 L 1122.5 1513.5 L 1122.5 1515.5 L 1121.5 1516.5 L 1121.5 1518.5 L 1120.5 1519.5 L 1120.5 1523.5 L 1119.5 1524.5 L 1119.5 1526.5 L 1118.5 1527.5 L 1118.5 1532.5 L 1117.5 1533.5 L 1117.5 1537.5 L 1116.5 1538.5 L 1116.5 1548.5 L 1115.5 1549.5 L 1115.5 1555.5 L 1114.5 1556.5 L 1114.5 1616.5 L 1115.5 1617.5 L 1115.5 1625.5 L 1116.5 1626.5 L 1116.5 1637.5 L 1117.5 1638.5 L 1117.5 1641.5 L 1118.5 1642.5 L 1118.5 1648.5 L 1119.5 1649.5 L 1119.5 1652.5 L 1120.5 1653.5 L 1120.5 1657.5 L 1121.5 1658.5 L 1121.5 1660.5 L 1122.5 1661.5 L 1122.5 1664.5 L 1123.5 1665.5 L 1123.5 1667.5 L 1124.5 1668.5 L 1124.5 1670.5 L 1125.5 1671.5 L 1125.5 1672.5 L 1126.5 1673.5 L 1126.5 1675.5 L 1127.5 1676.5 L 1127.5 1677.5 L 1128.5 1678.5 L 1128.5 1679.5 L 1129.5 1680.5 L 1129.5 1682.5 L 1131.5 1684.5 L 1131.5 1686.5 L 1133.5 1688.5 L 1133.5 1689.5 L 1134.5 1690.5 L 1134.5 1691.5 L 1137.5 1694.5 L 1137.5 1695.5 L 1141.5 1699.5 L 1141.5 1700.5 L 1142.5 1700.5 L 1146.5 1704.5 L 1147.5 1704.5 L 1149.5 1706.5 L 1150.5 1706.5 L 1151.5 1707.5 L 1152.5 1707.5 L 1153.5 1708.5 L 1154.5 1708.5 L 1155.5 1709.5 L 1156.5 1709.5 L 1157.5 1710.5 L 1160.5 1710.5 L 1161.5 1711.5 L 1163.5 1711.5 L 1164.5 1712.5 L 1170.5 1712.5 L 1171.5 1713.5 L 1175.5 1713.5 L 1176.5 1714.5 L 1196.5 1714.5 L 1197.5 1713.5 L 1201.5 1713.5 L 1202.5 1712.5 L 1207.5 1712.5 L 1208.5 1711.5 L 1210.5 1711.5 L 1211.5 1710.5 L 1214.5 1710.5 L 1215.5 1709.5 L 1216.5 1709.5 L 1217.5 1708.5 L 1218.5 1708.5 L 1219.5 1707.5 L 1221.5 1707.5 L 1222.5 1706.5 L 1223.5 1706.5 L 1224.5 1705.5 L 1225.5 1705.5 L 1228.5 1702.5 L 1229.5 1702.5 L 1232.5 1699.5 L 1233.5 1699.5 L 1240.5 1692.5 L 1240.5 1691.5 L 1243.5 1688.5 L 1243.5 1687.5 L 1245.5 1685.5 L 1245.5 1684.5 L 1246.5 1683.5 L 1246.5 1682.5 L 1247.5 1681.5 L 1247.5 1679.5 L 1249.5 1677.5 L 1249.5 1675.5 L 1250.5 1674.5 L 1250.5 1672.5 L 1251.5 1671.5 L 1251.5 1668.5 L 1252.5 1667.5 L 1252.5 1664.5 L 1253.5 1663.5 L 1253.5 1658.5 L 1254.5 1657.5 L 1254.5 1652.5 L 1255.5 1651.5 L 1255.5 1634.5 L 1235.5 1634.5 L 1234.5 1633.5 L 1214.5 1633.5 L 1214.5 1635.5 L 1215.5 1636.5 L 1215.5 1640.5 L 1214.5 1641.5 L 1215.5 1642.5 L 1215.5 1643.5 L 1214.5 1644.5 L 1214.5 1653.5 L 1213.5 1654.5 L 1213.5 1657.5 L 1212.5 1658.5 L 1212.5 1660.5 L 1211.5 1661.5 L 1211.5 1663.5 L 1209.5 1665.5 L 1209.5 1667.5 L 1203.5 1673.5 L 1202.5 1673.5 L 1201.5 1674.5 L 1200.5 1674.5 L 1199.5 1675.5 L 1197.5 1675.5 L 1196.5 1676.5 L 1194.5 1676.5 L 1193.5 1677.5 L 1183.5 1677.5 L 1182.5 1676.5 L 1179.5 1676.5 L 1178.5 1675.5 L 1177.5 1675.5 L 1176.5 1674.5 L 1175.5 1674.5 L 1173.5 1672.5 L 1172.5 1672.5 L 1168.5 1668.5 L 1168.5 1667.5 L 1166.5 1665.5 L 1166.5 1664.5 L 1165.5 1663.5 L 1165.5 1662.5 L 1164.5 1661.5 L 1164.5 1659.5 L 1163.5 1658.5 L 1163.5 1655.5 L 1162.5 1654.5 L 1162.5 1651.5 L 1161.5 1650.5 L 1161.5 1645.5 L 1160.5 1644.5 L 1160.5 1639.5 L 1159.5 1638.5 L 1159.5 1624.5 L 1158.5 1623.5 L 1158.5 1554.5 L 1159.5 1553.5 L 1159.5 1540.5 L 1160.5 1539.5 L 1160.5 1535.5 L 1161.5 1534.5 L 1161.5 1529.5 L 1162.5 1528.5 L 1162.5 1526.5 L 1163.5 1525.5 L 1163.5 1522.5 L 1164.5 1521.5 L 1164.5 1520.5 L 1165.5 1519.5 L 1165.5 1518.5 L 1166.5 1517.5 L 1166.5 1516.5 L 1168.5 1514.5 L 1168.5 1513.5 L 1172.5 1509.5 L 1173.5 1509.5 L 1176.5 1506.5 L 1178.5 1506.5 L 1179.5 1505.5 L 1181.5 1505.5 L 1182.5 1504.5 L 1193.5 1504.5 L 1194.5 1505.5 L 1196.5 1505.5 L 1197.5 1506.5 L 1198.5 1506.5 L 1199.5 1507.5 L 1200.5 1507.5 L 1207.5 1514.5 L 1207.5 1515.5 L 1208.5 1516.5 L 1208.5 1517.5 L 1209.5 1518.5 L 1209.5 1519.5 L 1210.5 1520.5 L 1210.5 1521.5 L 1211.5 1522.5 L 1211.5 1524.5 L 1212.5 1525.5 L 1212.5 1529.5 L 1213.5 1530.5 L 1213.5 1534.5 L 1214.5 1535.5 L 1214.5 1549.5 L 1233.5 1549.5 L 1234.5 1548.5 L 1253.5 1548.5 L 1253.5 1526.5 L 1252.5 1525.5 L 1252.5 1520.5 L 1251.5 1519.5 L 1251.5 1513.5 L 1250.5 1512.5 L 1250.5 1510.5 L 1249.5 1509.5 L 1249.5 1506.5 L 1248.5 1505.5 L 1248.5 1504.5 L 1247.5 1503.5 L 1247.5 1501.5 L 1246.5 1500.5 L 1246.5 1499.5 L 1245.5 1498.5 L 1245.5 1497.5 L 1244.5 1496.5 L 1244.5 1495.5 L 1242.5 1493.5 L 1242.5 1492.5 L 1241.5 1491.5 L 1241.5 1490.5 L 1231.5 1480.5 L 1230.5 1480.5 L 1228.5 1478.5 L 1227.5 1478.5 L 1226.5 1477.5 L 1225.5 1477.5 L 1224.5 1476.5 L 1223.5 1476.5 L 1222.5 1475.5 L 1221.5 1475.5 L 1220.5 1474.5 L 1219.5 1474.5 L 1218.5 1473.5 L 1216.5 1473.5 L 1215.5 1472.5 L 1213.5 1472.5 L 1212.5 1471.5 L 1209.5 1471.5 L 1208.5 1470.5 L 1205.5 1470.5 L 1204.5 1469.5 L 1197.5 1469.5 L 1196.5 1468.5 Z" transform="translate(2.0000 0)" />
  </g>
</svg>