<?xml version='1.0' encoding='utf-8'?>
<svg xmlns="http://www.w3.org/2000/svg" width="2129.92" height="2129.92" viewBox="0 0 2129.92 2129.92" fill="none">
  
  <rect x="0" y="0" width="2129.92" height="2129.92" fill="#FFFFFF" />
<g fill="#000000" fill-rule="evenodd" transform="translate(40.96 40.96)">
    <path d="M 1832.0 334.0 L 1832.0 571.0 L 1916.0 571.0 L 1933.0 567.0 L 1947.0 559.0 L 1959.0 546.0 L 1964.0 535.0 L 1968.0 517.0 L 1968.0 495.0 L 1964.0 477.0 L 1952.0 457.0 L 1931.0 443.0 L 1933.0 440.0 L 1943.0 436.0 L 1952.0 427.0 L 1958.0 412.0 L 1960.0 385.0 L 1954.0 359.0 L 1944.0 345.0 L 1929.0 338.0 L 1904.0 334.0 Z M 1876.0 464.0 L 1896.0 464.0 L 1907.0 467.0 L 1920.0 478.0 L 1923.0 484.0 L 1927.0 499.0 L 1925.0 517.0 L 1921.0 526.0 L 1914.0 533.0 L 1908.0 536.0 L 1877.0 537.0 L 1873.0 533.0 L 1873.0 467.0 Z M 1875.0 370.0 L 1901.0 369.0 L 1910.0 373.0 L 1915.0 379.0 L 1919.0 389.0 L 1919.0 405.0 L 1917.0 413.0 L 1909.0 425.0 L 1895.0 430.0 L 1878.0 430.0 L 1873.0 426.0 L 1873.0 373.0 Z M 1676.0 334.0 L 1628.0 571.0 L 1666.0 571.0 L 1674.0 526.0 L 1679.0 520.0 L 1727.0 521.0 L 1731.0 529.0 L 1739.0 571.0 L 1778.0 571.0 L 1729.0 334.0 Z M 1701.0 383.0 L 1703.0 383.0 L 1706.0 387.0 L 1707.0 402.0 L 1721.0 482.0 L 1717.0 486.0 L 1687.0 486.0 L 1683.0 482.0 L 1694.0 422.0 L 1698.0 389.0 Z M 1493.0 334.0 L 1444.0 571.0 L 1482.0 571.0 L 1490.0 526.0 L 1496.0 520.0 L 1543.0 521.0 L 1547.0 527.0 L 1547.0 534.0 L 1555.0 571.0 L 1594.0 571.0 L 1545.0 334.0 Z M 1518.0 383.0 L 1522.0 387.0 L 1525.0 415.0 L 1537.0 482.0 L 1533.0 486.0 L 1503.0 486.0 L 1499.0 482.0 L 1514.0 401.0 L 1515.0 386.0 Z M 1252.0 334.0 L 1252.0 571.0 L 1289.0 571.0 L 1288.0 418.0 L 1291.0 413.0 L 1296.0 419.0 L 1349.0 571.0 L 1391.0 571.0 L 1391.0 334.0 L 1355.0 334.0 L 1356.0 481.0 L 1354.0 483.0 L 1348.0 476.0 L 1299.0 334.0 Z M 1095.0 334.0 L 1046.0 571.0 L 1084.0 571.0 L 1092.0 526.0 L 1097.0 520.0 L 1146.0 521.0 L 1149.0 526.0 L 1157.0 571.0 L 1196.0 571.0 L 1148.0 334.0 Z M 1120.0 383.0 L 1124.0 385.0 L 1139.0 475.0 L 1139.0 483.0 L 1135.0 486.0 L 1106.0 486.0 L 1101.0 482.0 L 1117.0 387.0 Z M 882.0 334.0 L 882.0 369.0 L 919.0 369.0 L 924.0 373.0 L 924.0 571.0 L 965.0 571.0 L 965.0 373.0 L 970.0 369.0 L 1005.0 369.0 L 1005.0 334.0 Z" /><path d="M 1648.0 715.0 L 1648.0 951.0 L 1685.0 951.0 L 1684.0 797.0 L 1686.0 795.0 L 1691.0 800.0 L 1744.0 951.0 L 1785.0 951.0 L 1785.0 715.0 L 1749.0 715.0 L 1750.0 857.0 L 1747.0 861.0 L 1744.0 859.0 L 1694.0 715.0 Z M 1560.0 715.0 L 1560.0 951.0 L 1600.0 951.0 L 1600.0 715.0 Z M 1381.0 715.0 L 1381.0 951.0 L 1420.0 951.0 L 1420.0 859.0 L 1424.0 855.0 L 1442.0 854.0 L 1448.0 861.0 L 1476.0 951.0 L 1517.0 951.0 L 1482.0 848.0 L 1484.0 845.0 L 1489.0 843.0 L 1501.0 829.0 L 1505.0 819.0 L 1509.0 799.0 L 1509.0 770.0 L 1507.0 756.0 L 1500.0 737.0 L 1489.0 726.0 L 1470.0 718.0 L 1445.0 715.0 Z M 1423.0 750.0 L 1451.0 751.0 L 1457.0 754.0 L 1464.0 761.0 L 1468.0 769.0 L 1470.0 777.0 L 1470.0 797.0 L 1464.0 812.0 L 1457.0 819.0 L 1445.0 824.0 L 1425.0 824.0 L 1420.0 820.0 L 1420.0 753.0 Z M 1228.0 715.0 L 1228.0 951.0 L 1335.0 951.0 L 1335.0 916.0 L 1272.0 917.0 L 1268.0 913.0 L 1268.0 852.0 L 1272.0 849.0 L 1326.0 849.0 L 1326.0 812.0 L 1272.0 813.0 L 1268.0 809.0 L 1268.0 754.0 L 1273.0 750.0 L 1335.0 751.0 L 1335.0 715.0 Z M 1041.0 715.0 L 1090.0 951.0 L 1142.0 951.0 L 1177.0 785.0 L 1190.0 715.0 L 1148.0 716.0 L 1120.0 891.0 L 1117.0 897.0 L 1114.0 895.0 L 1083.0 715.0 Z M 878.0 715.0 L 878.0 900.0 L 884.0 928.0 L 889.0 937.0 L 895.0 943.0 L 904.0 949.0 L 916.0 953.0 L 928.0 955.0 L 959.0 955.0 L 978.0 950.0 L 987.0 945.0 L 995.0 937.0 L 1001.0 926.0 L 1005.0 906.0 L 1005.0 715.0 L 968.0 715.0 L 968.0 896.0 L 964.0 910.0 L 958.0 916.0 L 946.0 920.0 L 931.0 917.0 L 921.0 907.0 L 917.0 892.0 L 917.0 715.0 Z M 727.0 715.0 L 727.0 951.0 L 833.0 951.0 L 833.0 916.0 L 771.0 917.0 L 766.0 912.0 L 766.0 853.0 L 771.0 849.0 L 824.0 849.0 L 824.0 812.0 L 771.0 813.0 L 766.0 808.0 L 766.0 755.0 L 769.0 751.0 L 833.0 751.0 L 833.0 715.0 Z M 542.0 715.0 L 542.0 951.0 L 578.0 951.0 L 577.0 799.0 L 579.0 796.0 L 583.0 798.0 L 637.0 951.0 L 678.0 951.0 L 678.0 715.0 L 642.0 715.0 L 643.0 859.0 L 641.0 861.0 L 635.0 853.0 L 587.0 715.0 Z M 403.0 715.0 L 364.0 909.0 L 354.0 951.0 L 392.0 951.0 L 401.0 905.0 L 405.0 900.0 L 453.0 901.0 L 456.0 908.0 L 464.0 951.0 L 503.0 951.0 L 455.0 715.0 Z M 428.0 765.0 L 432.0 770.0 L 436.0 804.0 L 446.0 856.0 L 446.0 863.0 L 442.0 866.0 L 414.0 866.0 L 410.0 862.0 L 424.0 775.0 Z M 141.0 715.0 L 141.0 951.0 L 177.0 951.0 L 177.0 786.0 L 179.0 783.0 L 182.0 784.0 L 184.0 790.0 L 188.0 819.0 L 215.0 951.0 L 244.0 951.0 L 276.0 785.0 L 278.0 783.0 L 281.0 785.0 L 282.0 790.0 L 282.0 951.0 L 317.0 951.0 L 317.0 715.0 L 262.0 716.0 L 234.0 856.0 L 231.0 862.0 L 228.0 860.0 L 221.0 819.0 L 199.0 715.0 Z M 1887.0 712.0 L 1870.0 716.0 L 1858.0 723.0 L 1845.0 737.0 L 1838.0 751.0 L 1832.0 773.0 L 1829.0 799.0 L 1830.0 875.0 L 1834.0 899.0 L 1841.0 921.0 L 1849.0 936.0 L 1860.0 947.0 L 1868.0 951.0 L 1884.0 955.0 L 1913.0 955.0 L 1929.0 951.0 L 1941.0 945.0 L 1953.0 934.0 L 1960.0 923.0 L 1967.0 897.0 L 1968.0 824.0 L 1899.0 824.0 L 1899.0 857.0 L 1924.0 857.0 L 1929.0 861.0 L 1928.0 892.0 L 1923.0 907.0 L 1913.0 917.0 L 1904.0 920.0 L 1896.0 920.0 L 1889.0 917.0 L 1880.0 909.0 L 1876.0 902.0 L 1873.0 893.0 L 1871.0 876.0 L 1871.0 788.0 L 1875.0 768.0 L 1879.0 759.0 L 1884.0 753.0 L 1896.0 747.0 L 1906.0 747.0 L 1913.0 750.0 L 1921.0 758.0 L 1926.0 769.0 L 1928.0 788.0 L 1965.0 787.0 L 1965.0 774.0 L 1959.0 745.0 L 1952.0 732.0 L 1943.0 723.0 L 1929.0 716.0 L 1912.0 712.0 Z" /><path d="M 1591.0 1095.0 L 1591.0 1332.0 L 1628.0 1332.0 L 1627.0 1166.0 L 1629.0 1163.0 L 1634.0 1168.0 L 1637.0 1192.0 L 1667.0 1332.0 L 1696.0 1332.0 L 1726.0 1182.0 L 1726.0 1175.0 L 1729.0 1165.0 L 1731.0 1163.0 L 1734.0 1165.0 L 1734.0 1332.0 L 1770.0 1332.0 L 1770.0 1095.0 L 1715.0 1095.0 L 1691.0 1204.0 L 1686.0 1237.0 L 1682.0 1243.0 L 1679.0 1241.0 L 1678.0 1228.0 L 1650.0 1095.0 Z M 1417.0 1095.0 L 1417.0 1332.0 L 1523.0 1332.0 L 1523.0 1297.0 L 1461.0 1298.0 L 1456.0 1293.0 L 1457.0 1231.0 L 1460.0 1228.0 L 1514.0 1228.0 L 1514.0 1191.0 L 1461.0 1192.0 L 1456.0 1187.0 L 1456.0 1135.0 L 1460.0 1130.0 L 1523.0 1130.0 L 1523.0 1095.0 Z M 1240.0 1095.0 L 1240.0 1130.0 L 1277.0 1130.0 L 1281.0 1135.0 L 1281.0 1332.0 L 1321.0 1332.0 L 1321.0 1134.0 L 1325.0 1130.0 L 1362.0 1130.0 L 1362.0 1095.0 Z M 865.0 1095.0 L 923.0 1249.0 L 923.0 1332.0 L 963.0 1332.0 L 963.0 1246.0 L 1018.0 1095.0 L 975.0 1095.0 L 947.0 1192.0 L 947.0 1198.0 L 944.0 1203.0 L 939.0 1200.0 L 910.0 1095.0 Z M 1894.0 1091.0 L 1868.0 1096.0 L 1856.0 1103.0 L 1849.0 1110.0 L 1841.0 1124.0 L 1837.0 1138.0 L 1837.0 1166.0 L 1845.0 1189.0 L 1857.0 1205.0 L 1876.0 1220.0 L 1904.0 1238.0 L 1921.0 1254.0 L 1927.0 1266.0 L 1927.0 1282.0 L 1921.0 1295.0 L 1914.0 1301.0 L 1905.0 1304.0 L 1893.0 1304.0 L 1883.0 1300.0 L 1876.0 1293.0 L 1871.0 1278.0 L 1871.0 1262.0 L 1833.0 1262.0 L 1833.0 1285.0 L 1840.0 1310.0 L 1855.0 1327.0 L 1875.0 1335.0 L 1887.0 1337.0 L 1910.0 1337.0 L 1929.0 1333.0 L 1942.0 1327.0 L 1958.0 1311.0 L 1963.0 1301.0 L 1968.0 1281.0 L 1968.0 1254.0 L 1964.0 1241.0 L 1955.0 1226.0 L 1942.0 1213.0 L 1905.0 1188.0 L 1884.0 1169.0 L 1876.0 1154.0 L 1876.0 1141.0 L 1880.0 1133.0 L 1885.0 1128.0 L 1901.0 1123.0 L 1914.0 1128.0 L 1919.0 1133.0 L 1925.0 1147.0 L 1926.0 1164.0 L 1964.0 1164.0 L 1964.0 1148.0 L 1958.0 1120.0 L 1952.0 1109.0 L 1946.0 1103.0 L 1927.0 1094.0 Z M 1143.0 1092.0 L 1110.0 1092.0 L 1094.0 1096.0 L 1083.0 1102.0 L 1069.0 1118.0 L 1063.0 1133.0 L 1061.0 1144.0 L 1061.0 1163.0 L 1063.0 1173.0 L 1073.0 1195.0 L 1094.0 1216.0 L 1126.0 1236.0 L 1140.0 1247.0 L 1147.0 1255.0 L 1153.0 1269.0 L 1153.0 1280.0 L 1145.0 1297.0 L 1131.0 1304.0 L 1118.0 1304.0 L 1107.0 1299.0 L 1100.0 1291.0 L 1096.0 1280.0 L 1096.0 1262.0 L 1057.0 1262.0 L 1059.0 1292.0 L 1066.0 1312.0 L 1073.0 1321.0 L 1083.0 1329.0 L 1099.0 1335.0 L 1133.0 1337.0 L 1159.0 1331.0 L 1172.0 1323.0 L 1180.0 1315.0 L 1188.0 1302.0 L 1192.0 1289.0 L 1194.0 1276.0 L 1194.0 1256.0 L 1192.0 1247.0 L 1185.0 1232.0 L 1170.0 1215.0 L 1126.0 1185.0 L 1107.0 1166.0 L 1100.0 1149.0 L 1102.0 1139.0 L 1109.0 1129.0 L 1122.0 1123.0 L 1128.0 1123.0 L 1140.0 1128.0 L 1147.0 1137.0 L 1151.0 1149.0 L 1152.0 1164.0 L 1190.0 1164.0 L 1188.0 1134.0 L 1179.0 1111.0 L 1167.0 1100.0 Z M 754.0 1091.0 L 741.0 1092.0 L 726.0 1096.0 L 708.0 1109.0 L 699.0 1123.0 L 695.0 1136.0 L 695.0 1169.0 L 702.0 1188.0 L 712.0 1202.0 L 731.0 1218.0 L 769.0 1243.0 L 777.0 1251.0 L 785.0 1267.0 L 785.0 1281.0 L 783.0 1288.0 L 776.0 1298.0 L 767.0 1303.0 L 750.0 1304.0 L 744.0 1302.0 L 735.0 1295.0 L 730.0 1287.0 L 728.0 1279.0 L 728.0 1262.0 L 689.0 1262.0 L 689.0 1281.0 L 691.0 1294.0 L 696.0 1309.0 L 709.0 1325.0 L 721.0 1332.0 L 744.0 1337.0 L 765.0 1337.0 L 792.0 1331.0 L 802.0 1325.0 L 815.0 1312.0 L 822.0 1298.0 L 825.0 1286.0 L 826.0 1254.0 L 818.0 1233.0 L 809.0 1221.0 L 790.0 1205.0 L 761.0 1186.0 L 741.0 1167.0 L 734.0 1153.0 L 734.0 1142.0 L 739.0 1132.0 L 743.0 1128.0 L 752.0 1124.0 L 760.0 1123.0 L 771.0 1127.0 L 778.0 1134.0 L 783.0 1146.0 L 784.0 1164.0 L 822.0 1164.0 L 822.0 1147.0 L 816.0 1120.0 L 809.0 1108.0 L 804.0 1103.0 L 793.0 1097.0 L 776.0 1092.0 Z" /><path d="M 1675.0 1474.0 L 1675.0 1709.0 L 1777.0 1709.0 L 1777.0 1675.0 L 1717.0 1675.0 L 1713.0 1671.0 L 1713.0 1474.0 Z M 1503.0 1474.0 L 1503.0 1709.0 L 1608.0 1709.0 L 1608.0 1675.0 L 1546.0 1675.0 L 1542.0 1670.0 L 1542.0 1474.0 Z M 1890.0 1469.0 L 1874.0 1472.0 L 1861.0 1478.0 L 1846.0 1493.0 L 1840.0 1504.0 L 1833.0 1526.0 L 1829.0 1555.0 L 1829.0 1617.0 L 1831.0 1638.0 L 1837.0 1665.0 L 1848.0 1690.0 L 1855.0 1699.0 L 1864.0 1706.0 L 1877.0 1711.0 L 1889.0 1713.0 L 1911.0 1713.0 L 1929.0 1709.0 L 1938.0 1705.0 L 1957.0 1687.0 L 1963.0 1675.0 L 1966.0 1664.0 L 1968.0 1635.0 L 1929.0 1634.0 L 1929.0 1652.0 L 1923.0 1668.0 L 1912.0 1676.0 L 1906.0 1678.0 L 1894.0 1677.0 L 1881.0 1667.0 L 1874.0 1649.0 L 1871.0 1622.0 L 1871.0 1555.0 L 1876.0 1523.0 L 1882.0 1512.0 L 1889.0 1506.0 L 1897.0 1503.0 L 1909.0 1504.0 L 1921.0 1513.0 L 1926.0 1523.0 L 1929.0 1536.0 L 1929.0 1548.0 L 1966.0 1547.0 L 1966.0 1525.0 L 1960.0 1500.0 L 1954.0 1489.0 L 1946.0 1481.0 L 1933.0 1474.0 L 1919.0 1470.0 Z" />
  </g>
</svg>